<svg width="4021" height="1716" xmlns="http://www.w3.org/2000/svg" xmlns:xlink="http://www.w3.org/1999/xlink" xml:space="preserve" overflow="hidden"><defs><clipPath id="clip0"><rect x="248" y="415" width="4021" height="1716"/></clipPath><clipPath id="clip1"><rect x="1943" y="959" width="331" height="331"/></clipPath><clipPath id="clip2"><rect x="1943" y="959" width="331" height="331"/></clipPath><clipPath id="clip3"><rect x="1943" y="959" width="331" height="331"/></clipPath></defs><g clip-path="url(#clip0)" transform="translate(-248 -415)"><path d="M833.5 1124.5 927.781 959.5 1069.22 959.5 1163.5 1124.5 1069.22 1289.5 927.781 1289.5Z" stroke="#FFC000" stroke-width="4.58333" stroke-linejoin="round" stroke-miterlimit="10" fill="#FFC000" fill-rule="evenodd"/><path d="M1393.5 959.5 1723.5 1124.5 1393.5 1289.5Z" stroke="#FFC000" stroke-width="4.58333" stroke-linejoin="round" stroke-miterlimit="10" fill="#FFC000" fill-rule="evenodd"/><path d="M1244.75 1110.25 1381.52 1110.25 1381.52 1137.75 1244.75 1137.75ZM1258.5 1165.25 1176 1124 1258.5 1082.75Z" fill="#FFC000"/><path d="M2329 1110.25 2329.03 1110.25C2336.62 1110.25 2342.78 1116.41 2342.78 1124 2342.78 1131.59 2336.62 1137.75 2329.03 1137.75L2329 1137.75C2321.41 1137.75 2315.25 1131.59 2315.25 1124 2315.25 1116.41 2321.41 1110.25 2329 1110.25ZM2384.03 1110.25 2384.05 1110.25C2391.65 1110.25 2397.8 1116.41 2397.8 1124 2397.8 1131.59 2391.65 1137.75 2384.05 1137.75L2384.03 1137.75C2376.43 1137.75 2370.28 1131.59 2370.28 1124 2370.28 1116.41 2376.43 1110.25 2384.03 1110.25ZM2439.05 1110.25 2439.08 1110.25C2446.68 1110.25 2452.83 1116.41 2452.83 1124 2452.83 1131.59 2446.68 1137.75 2439.08 1137.75L2439.05 1137.75C2431.46 1137.75 2425.3 1131.59 2425.3 1124 2425.3 1116.41 2431.46 1110.25 2439.05 1110.25ZM2494.08 1110.25 2494.11 1110.25C2501.7 1110.25 2507.86 1116.41 2507.86 1124 2507.86 1131.59 2501.7 1137.75 2494.11 1137.75L2494.08 1137.75C2486.49 1137.75 2480.33 1131.59 2480.33 1124 2480.33 1116.41 2486.49 1110.25 2494.08 1110.25ZM2549.11 1110.25 2549.14 1110.25C2556.73 1110.25 2562.89 1116.41 2562.89 1124 2562.89 1131.59 2556.73 1137.75 2549.14 1137.75L2549.11 1137.75C2541.52 1137.75 2535.36 1131.59 2535.36 1124 2535.36 1116.41 2541.52 1110.25 2549.11 1110.25ZM2604.14 1110.25 2604.16 1110.25C2611.76 1110.25 2617.91 1116.41 2617.91 1124 2617.91 1131.59 2611.76 1137.75 2604.16 1137.75L2604.14 1137.75C2596.54 1137.75 2590.39 1131.59 2590.39 1124 2590.39 1116.41 2596.54 1110.25 2604.14 1110.25ZM2659.16 1110.25 2659.19 1110.25C2666.79 1110.25 2672.94 1116.41 2672.94 1124 2672.94 1131.59 2666.79 1137.75 2659.19 1137.75L2659.16 1137.75C2651.57 1137.75 2645.41 1131.59 2645.41 1124 2645.41 1116.41 2651.57 1110.25 2659.16 1110.25ZM2714.19 1110.25 2714.22 1110.25C2721.81 1110.25 2727.97 1116.41 2727.97 1124 2727.97 1131.59 2721.81 1137.75 2714.22 1137.75L2714.19 1137.75C2706.6 1137.75 2700.44 1131.59 2700.44 1124 2700.44 1116.41 2706.6 1110.25 2714.19 1110.25ZM2329 1124 2356.5 1151.5 2274 1124 2356.5 1096.5Z" fill="#0000FF"/><path d="M-13.75-13.75 27.5-13.75 27.5 13.75-13.75 13.75ZM55-13.75 82.5-13.75 82.5 13.75 55 13.75ZM110-13.75 137.5-13.75 137.5 13.75 110 13.75ZM165-13.75 192.5-13.75 192.5 13.75 165 13.75ZM227.324 6.42641 227.324 33.9264 199.824 33.9264 199.824 6.42641ZM227.324 61.4264 227.324 88.9264 199.824 88.9264 199.824 61.4264ZM227.324 116.426 227.324 143.926 199.824 143.926 199.824 116.426ZM227.324 171.426 227.324 198.926 199.824 198.926 199.824 171.426ZM227.324 226.426 227.324 253.926 199.824 253.926 199.824 226.426ZM227.324 281.426 227.324 308.926 199.824 308.926 199.824 281.426ZM227.324 336.426 227.324 363.926 199.824 363.926 199.824 336.426ZM227.324 391.426 227.324 418.926 199.824 418.926 199.824 391.426ZM227.324 446.426 227.324 473.926 199.824 473.926 199.824 446.426ZM227.324 501.426 227.324 528.926 199.824 528.926 199.824 501.426ZM227.324 556.426 227.324 583.926 199.824 583.926 199.824 556.426ZM227.324 611.426 227.324 638.926 199.824 638.926 199.824 611.426ZM227.324 666.426 227.324 693.926 199.824 693.926 199.824 666.426ZM227.324 721.426 227.324 748.926 199.824 748.926 199.824 721.426ZM227.324 776.426 227.324 803.926 199.824 803.926 199.824 776.426ZM227.324 831.426 227.324 858.926 199.824 858.926 199.824 831.426ZM227.324 886.426 227.324 913.926 199.824 913.926 199.824 886.426ZM227.324 941.426 227.324 968.926 199.824 968.926 199.824 941.426ZM227.324 996.426 227.324 1023.93 199.824 1023.93 199.824 996.426ZM227.324 1051.43 227.324 1078.93 199.824 1078.93 199.824 1051.43ZM227.324 1106.43 227.324 1133.93 199.824 1133.93 199.824 1106.43ZM209.13 1170.73 181.63 1170.73 181.63 1143.23 209.13 1143.23ZM154.13 1170.73 126.63 1170.73 126.63 1143.23 154.13 1143.23ZM99.1296 1170.73 71.6296 1170.73 71.6296 1143.23 99.1296 1143.23ZM59.5833 1156.98 87.0833 1184.48 4.58333 1156.98 87.0833 1129.48Z" fill="#0000FF" transform="matrix(1.83697e-16 1 1 -1.83697e-16 2908 1287)"/><path d="M2741 1124C2741 1032.87 2814.87 959 2906 959 2997.13 959 3071 1032.87 3071 1124 3071 1215.13 2997.13 1289 2906 1289 2814.87 1289 2741 1215.13 2741 1124Z" stroke="#0000FF" stroke-width="27.5" stroke-linejoin="round" stroke-miterlimit="10" fill="#0000FF" fill-rule="evenodd"/><path d="M3898 1085.05 4063 959 4228 1085.05 4164.98 1289 3961.02 1289Z" stroke="#FF9900" stroke-width="27.5" stroke-linejoin="round" stroke-miterlimit="10" fill="#FF9900" fill-rule="evenodd"/><path d="M0 13.75-108.69 13.75-94.9399 0-94.9399 1131.22-108.69 1117.47 27.5 1117.47 27.5 1144.97-108.69 1144.97C-116.284 1144.97-122.44 1138.81-122.44 1131.22L-122.44 0C-122.44-7.59391-116.284-13.75-108.69-13.75L0-13.75ZM27.5 1131.22 0 1103.72 82.5 1131.22 0 1158.72Z" fill="#C00000" transform="matrix(1.83697e-16 1 1 -1.83697e-16 427 959)"/><path d="M0 13.75-572.236 13.75-558.486 0-558.486 1944.94-572.236 1931.19 27.5001 1931.19 27.5001 1958.69-572.236 1958.69C-579.829 1958.69-585.986 1952.54-585.986 1944.94L-585.986 0C-585.986-7.59391-579.829-13.75-572.236-13.75L0-13.75ZM27.5 1944.94 0 1917.44 82.5 1944.94 0 1972.44Z" fill="#0000FF" transform="matrix(-6.12323e-17 -1 -1 6.12323e-17 3502.94 1288.5)"/><path d="M3517.13 1289 3517.13 1706.35C3517.13 1713.94 3510.98 1720.1 3503.38 1720.1L2115 1720.1C2107.41 1720.1 2101.25 1713.94 2101.25 1706.35L2101.25 1347.09 2128.75 1347.09 2128.75 1706.35 2115 1692.6 3503.38 1692.6 3489.63 1706.35 3489.63 1289ZM2115 1347.09 2087.5 1374.59 2115 1292.09 2142.5 1374.59Z" fill="#0000FF"/><path d="M3518.91 1287 3518.91 2024.23C3518.91 2031.83 3512.75 2037.98 3505.16 2037.98L429 2037.98C421.406 2037.98 415.25 2031.83 415.25 2024.23L415.25 1346.58 442.75 1346.58 442.75 2024.23 429 2010.48 3505.16 2010.48 3491.41 2024.23 3491.41 1287ZM429 1346.58 401.5 1374.08 429 1291.58 456.5 1374.08Z" fill="#0000FF"/><text font-family="Arial,Arial_MSFontService,sans-serif" font-weight="700" font-size="41" transform="matrix(1 0 0 1 2453.95 658)">One<tspan fill="#FFC000" font-size="41" x="91.6668" y="0">Value Process </tspan><tspan font-size="41" x="-55" y="50">is </tspan><tspan font-style="italic" font-size="41" x="-9.1665" y="50">Policy Protected by</tspan><tspan font-size="41" x="130.625" y="99">one</tspan><tspan font-size="41" x="203.959" y="99">-</tspan>or-more<tspan fill="#0000FF" font-size="41" x="43.5418" y="149">Internal Policies</tspan><tspan font-size="41" x="-121.509" y="536">One </tspan><tspan fill="#FFC000" font-size="41" x="-29.8423" y="536">Value Asset </tspan><tspan font-size="41" x="-121.509" y="586">is Policy Protected </tspan><tspan font-size="41" x="-121.509" y="635">by one</tspan><tspan font-size="41" x="11.4077" y="635">-</tspan><tspan font-size="41" x="25.1577" y="635">or</tspan><tspan font-size="41" x="66.4077" y="635">-</tspan>more <tspan fill="#0000FF" font-size="41" x="-121.509" y="685">Internal Policies</tspan><tspan font-size="41" x="-79.9976" y="1121">One </tspan><tspan fill="#0000FF" font-size="41" x="11.6692" y="1121">Security Asset</tspan><tspan font-size="41" x="309.586" y="1121">protects one</tspan><tspan font-size="41" x="557.086" y="1121">-</tspan>or-more <tspan fill="#FFC000" font-size="41" x="738.128" y="1121">Value Assets</tspan><tspan font-size="41" x="1180.65" y="916">One </tspan><tspan fill="#FF9900" font-size="41" x="1272.32" y="916">External Policy </tspan><tspan font-size="41" x="1341.07" y="966">is fulfilled by </tspan><tspan font-size="41" x="1350.23" y="1015">one</tspan><tspan font-size="41" x="1423.57" y="1015">-</tspan>or-more<tspan fill="#0000FF" font-size="41" x="1263.15" y="1065">Internal Policies</tspan><tspan font-size="41" x="-1978.55" y="-187">One </tspan><tspan fill="#C00000" font-size="41" x="-1886.89" y="-187">Threat Vector </tspan><tspan font-size="41" x="-1609.6" y="-187">threatens one </tspan><tspan fill="#0000FF" font-size="41" x="-1327.72" y="-187">Security Asset </tspan><tspan font-size="41" x="-1029.8" y="-187">Vulnerability</tspan><tspan font-size="41" x="-1978.55" y="-21">One </tspan><tspan fill="#C00000" font-size="41" x="-1886.89" y="-21">Threat Vector </tspan><tspan font-size="41" x="-1609.6" y="-21">threatens one </tspan><tspan fill="#FFC000" font-size="41" x="-1327.72" y="-21">Value Asset </tspan><tspan font-size="41" x="-1082.51" y="-21">Vulnerability</tspan><tspan font-size="41" x="-1978.55" y="150">One </tspan><tspan fill="#C00000" font-size="41" x="-1886.89" y="150">Threat Vector </tspan><tspan font-size="41" x="-1609.6" y="150">threatens one </tspan><tspan fill="#FFC000" font-size="41" x="-1327.72" y="150">Security Process </tspan>Vulnerability<tspan font-size="41" x="-150.788" y="1276">One </tspan><tspan fill="#0000FF" font-size="41" x="-59.1216" y="1276">Security Asset </tspan><tspan font-size="41" x="238.795" y="1276">protects one</tspan><tspan font-size="41" x="486.295" y="1276">-</tspan>or-more <tspan fill="#FFC000" font-size="41" x="667.337" y="1276">Value Processes</tspan><tspan font-size="41" x="-93.489" y="1438">One </tspan><tspan fill="#0000FF" font-size="41" x="-1.82227" y="1438">Security Asset </tspan><tspan font-size="41" x="296.095" y="1438">detects one</tspan><tspan font-size="41" x="525.261" y="1438">-</tspan>or-more <tspan fill="#C00000" font-size="41" x="706.303" y="1438">Threat Vectors</tspan></text><path d="M2892.64 959 2892.64 958.973C2892.64 951.379 2898.8 945.223 2906.39 945.223 2913.99 945.223 2920.14 951.379 2920.14 958.973L2920.14 959C2920.14 966.594 2913.99 972.75 2906.39 972.75 2898.8 972.75 2892.64 966.594 2892.64 959ZM2892.64 903.973 2892.64 903.945C2892.64 896.351 2898.8 890.195 2906.39 890.195 2913.99 890.195 2920.14 896.351 2920.14 903.945L2920.14 903.973C2920.14 911.567 2913.99 917.723 2906.39 917.723 2898.8 917.723 2892.64 911.567 2892.64 903.973ZM2892.64 848.945 2892.64 848.918C2892.64 841.324 2898.8 835.168 2906.39 835.168 2913.99 835.168 2920.14 841.324 2920.14 848.918L2920.14 848.945C2920.14 856.539 2913.99 862.695 2906.39 862.695 2898.8 862.695 2892.64 856.539 2892.64 848.945ZM2851.9 862.165 2851.87 862.165C2844.27 862.165 2838.12 856.009 2838.12 848.415 2838.12 840.822 2844.27 834.665 2851.87 834.665L2851.9 834.665C2859.49 834.665 2865.65 840.822 2865.65 848.415 2865.65 856.009 2859.49 862.165 2851.9 862.165ZM2796.87 862.165 2796.84 862.165C2789.25 862.165 2783.09 856.009 2783.09 848.415 2783.09 840.822 2789.25 834.665 2796.84 834.665L2796.87 834.665C2804.46 834.665 2810.62 840.822 2810.62 848.415 2810.62 856.009 2804.46 862.165 2796.87 862.165ZM2741.84 862.165 2741.81 862.165C2734.22 862.165 2728.06 856.009 2728.06 848.415 2728.06 840.822 2734.22 834.665 2741.81 834.665L2741.84 834.665C2749.43 834.665 2755.59 840.822 2755.59 848.415 2755.59 856.009 2749.43 862.165 2741.84 862.165ZM2686.81 862.165 2686.79 862.165C2679.19 862.165 2673.04 856.009 2673.04 848.415 2673.04 840.822 2679.19 834.665 2686.79 834.665L2686.81 834.665C2694.41 834.665 2700.56 840.822 2700.56 848.415 2700.56 856.009 2694.41 862.165 2686.81 862.165ZM2631.79 862.165 2631.76 862.165C2624.16 862.165 2618.01 856.009 2618.01 848.415 2618.01 840.822 2624.16 834.665 2631.76 834.665L2631.79 834.665C2639.38 834.665 2645.54 840.822 2645.54 848.415 2645.54 856.009 2639.38 862.165 2631.79 862.165ZM2576.76 862.165 2576.73 862.165C2569.14 862.165 2562.98 856.009 2562.98 848.415 2562.98 840.822 2569.14 834.665 2576.73 834.665L2576.76 834.665C2584.35 834.665 2590.51 840.822 2590.51 848.415 2590.51 856.009 2584.35 862.165 2576.76 862.165ZM2521.73 862.165 2521.7 862.165C2514.11 862.165 2507.95 856.009 2507.95 848.415 2507.95 840.822 2514.11 834.665 2521.7 834.665L2521.73 834.665C2529.32 834.665 2535.48 840.822 2535.48 848.415 2535.48 856.009 2529.32 862.165 2521.73 862.165ZM2466.7 862.165 2466.68 862.165C2459.08 862.165 2452.93 856.009 2452.93 848.415 2452.93 840.822 2459.08 834.665 2466.68 834.665L2466.7 834.665C2474.3 834.665 2480.45 840.822 2480.45 848.415 2480.45 856.009 2474.3 862.165 2466.7 862.165ZM2411.68 862.165 2411.65 862.165C2404.05 862.165 2397.9 856.009 2397.9 848.415 2397.9 840.822 2404.05 834.665 2411.65 834.665L2411.68 834.665C2419.27 834.665 2425.43 840.822 2425.43 848.415 2425.43 856.009 2419.27 862.165 2411.68 862.165ZM2356.65 862.165 2356.62 862.165C2349.03 862.165 2342.87 856.009 2342.87 848.415 2342.87 840.822 2349.03 834.665 2356.62 834.665L2356.65 834.665C2364.24 834.665 2370.4 840.822 2370.4 848.415 2370.4 856.009 2364.24 862.165 2356.65 862.165ZM2301.62 862.165 2301.59 862.165C2294 862.165 2287.84 856.009 2287.84 848.415 2287.84 840.822 2294 834.665 2301.59 834.665L2301.62 834.665C2309.21 834.665 2315.37 840.822 2315.37 848.415 2315.37 856.009 2309.21 862.165 2301.62 862.165ZM2246.59 862.165 2246.57 862.165C2238.97 862.165 2232.82 856.009 2232.82 848.415 2232.82 840.822 2238.97 834.665 2246.57 834.665L2246.59 834.665C2254.19 834.665 2260.34 840.822 2260.34 848.415 2260.34 856.009 2254.19 862.165 2246.59 862.165ZM2191.57 862.165 2191.54 862.165C2183.94 862.165 2177.79 856.009 2177.79 848.415 2177.79 840.822 2183.94 834.665 2191.54 834.665L2191.57 834.665C2199.16 834.665 2205.32 840.822 2205.32 848.415 2205.32 856.009 2199.16 862.165 2191.57 862.165ZM2136.54 862.165 2136.51 862.165C2128.92 862.165 2122.76 856.009 2122.76 848.415 2122.76 840.822 2128.92 834.665 2136.51 834.665L2136.54 834.665C2144.13 834.665 2150.29 840.822 2150.29 848.415 2150.29 856.009 2144.13 862.165 2136.54 862.165ZM2081.51 862.165 2081.48 862.165C2073.89 862.165 2067.73 856.009 2067.73 848.415 2067.73 840.822 2073.89 834.665 2081.48 834.665L2081.51 834.665C2089.1 834.665 2095.26 840.822 2095.26 848.415 2095.26 856.009 2089.1 862.165 2081.51 862.165ZM2026.48 862.165 2026.46 862.165C2018.86 862.165 2012.71 856.009 2012.71 848.415 2012.71 840.822 2018.86 834.665 2026.46 834.665L2026.48 834.665C2034.08 834.665 2040.23 840.822 2040.23 848.415 2040.23 856.009 2034.08 862.165 2026.48 862.165ZM1971.46 862.165 1971.43 862.165C1963.83 862.165 1957.68 856.009 1957.68 848.415 1957.68 840.822 1963.83 834.665 1971.43 834.665L1971.46 834.665C1979.05 834.665 1985.21 840.822 1985.21 848.415 1985.21 856.009 1979.05 862.165 1971.46 862.165ZM1916.43 862.165 1916.4 862.165C1908.81 862.165 1902.65 856.009 1902.65 848.415 1902.65 840.822 1908.81 834.665 1916.4 834.665L1916.43 834.665C1924.02 834.665 1930.18 840.822 1930.18 848.415 1930.18 856.009 1924.02 862.165 1916.43 862.165ZM1861.4 862.165 1861.37 862.165C1853.78 862.165 1847.62 856.009 1847.62 848.415 1847.62 840.822 1853.78 834.665 1861.37 834.665L1861.4 834.665C1868.99 834.665 1875.15 840.822 1875.15 848.415 1875.15 856.009 1868.99 862.165 1861.4 862.165ZM1806.37 862.165 1806.35 862.165C1798.75 862.165 1792.6 856.009 1792.6 848.415 1792.6 840.822 1798.75 834.665 1806.35 834.665L1806.37 834.665C1813.97 834.665 1820.12 840.822 1820.12 848.415 1820.12 856.009 1813.97 862.165 1806.37 862.165ZM1751.35 862.165 1751.32 862.165C1743.72 862.165 1737.57 856.009 1737.57 848.415 1737.57 840.822 1743.72 834.665 1751.32 834.665L1751.35 834.665C1758.94 834.665 1765.1 840.822 1765.1 848.415 1765.1 856.009 1758.94 862.165 1751.35 862.165ZM1696.32 862.165 1696.29 862.165C1688.7 862.165 1682.54 856.009 1682.54 848.415 1682.54 840.822 1688.7 834.665 1696.29 834.665L1696.32 834.665C1703.91 834.665 1710.07 840.822 1710.07 848.415 1710.07 856.009 1703.91 862.165 1696.32 862.165ZM1678.75 872.125 1678.75 872.153C1678.75 879.747 1672.59 885.903 1665 885.903 1657.41 885.903 1651.25 879.747 1651.25 872.153L1651.25 872.125C1651.25 864.531 1657.41 858.375 1665 858.375 1672.59 858.375 1678.75 864.531 1678.75 872.125ZM1678.75 927.153 1678.75 927.18C1678.75 934.774 1672.59 940.93 1665 940.93 1657.41 940.93 1651.25 934.774 1651.25 927.18L1651.25 927.153C1651.25 919.559 1657.41 913.403 1665 913.403 1672.59 913.403 1678.75 919.559 1678.75 927.153ZM1678.75 982.18 1678.75 982.208C1678.75 989.802 1672.59 995.958 1665 995.958 1657.41 995.958 1651.25 989.802 1651.25 982.208L1651.25 982.18C1651.25 974.586 1657.41 968.43 1665 968.43 1672.59 968.43 1678.75 974.586 1678.75 982.18ZM1665 987.699 1692.5 960.199 1665 1042.7 1637.5 960.199Z" fill="#0000FF"/><path d="M0 13.75-0.0275 13.75C-7.62142 13.75-13.7775 7.59392-13.7775 0-13.7775-7.59392-7.62142-13.75-0.0275-13.75L0-13.75C7.59392-13.75 13.75-7.59392 13.75 0 13.75 7.59392 7.59392 13.75 0 13.75ZM-55.0275 13.75-55.055 13.75C-62.6489 13.75-68.805 7.59392-68.805 0-68.805-7.59392-62.6489-13.75-55.055-13.75L-55.0275-13.75C-47.4336-13.75-41.2775-7.59392-41.2775 0-41.2775 7.59392-47.4336 13.75-55.0275 13.75ZM-110.055 13.75-110.082 13.75C-117.676 13.75-123.832 7.59392-123.832 0-123.832-7.59392-117.676-13.75-110.082-13.75L-110.055-13.75C-102.461-13.75-96.305-7.59392-96.305 0-96.305 7.59392-102.461 13.75-110.055 13.75ZM-96.7175 54.615-96.7175 54.6425C-96.7175 62.2364-102.874 68.3925-110.468 68.3925-118.061 68.3925-124.218 62.2364-124.218 54.6425L-124.218 54.615C-124.218 47.0211-118.061 40.865-110.468 40.865-102.874 40.865-96.7175 47.0211-96.7175 54.615ZM-96.7175 109.642-96.7175 109.67C-96.7175 117.264-102.874 123.42-110.468 123.42-118.061 123.42-124.218 117.264-124.218 109.67L-124.218 109.642C-124.218 102.049-118.061 95.8925-110.468 95.8925-102.874 95.8925-96.7175 102.049-96.7175 109.642ZM-96.7175 164.67-96.7175 164.697C-96.7175 172.291-102.874 178.447-110.468 178.447-118.061 178.447-124.218 172.291-124.218 164.697L-124.218 164.67C-124.218 157.076-118.061 150.92-110.468 150.92-102.874 150.92-96.7175 157.076-96.7175 164.67ZM-96.7175 219.698-96.7175 219.725C-96.7175 227.319-102.874 233.475-110.468 233.475-118.061 233.475-124.218 227.319-124.218 219.725L-124.218 219.698C-124.218 212.104-118.061 205.948-110.468 205.948-102.874 205.948-96.7175 212.104-96.7175 219.698ZM-96.7175 274.725-96.7175 274.753C-96.7175 282.346-102.874 288.503-110.468 288.503-118.061 288.503-124.218 282.346-124.218 274.753L-124.218 274.725C-124.218 267.131-118.061 260.975-110.468 260.975-102.874 260.975-96.7175 267.131-96.7175 274.725ZM-96.7175 329.753-96.7175 329.78C-96.7175 337.374-102.874 343.53-110.468 343.53-118.061 343.53-124.218 337.374-124.218 329.78L-124.218 329.753C-124.218 322.159-118.061 316.003-110.468 316.003-102.874 316.003-96.7175 322.159-96.7175 329.753ZM-96.7175 384.78-96.7175 384.807C-96.7175 392.401-102.874 398.557-110.468 398.557-118.061 398.557-124.218 392.401-124.218 384.807L-124.218 384.78C-124.218 377.186-118.061 371.03-110.468 371.03-102.874 371.03-96.7175 377.186-96.7175 384.78ZM-96.7175 439.807-96.7175 439.835C-96.7175 447.429-102.874 453.585-110.468 453.585-118.061 453.585-124.218 447.429-124.218 439.835L-124.218 439.807C-124.218 432.214-118.061 426.057-110.468 426.057-102.874 426.057-96.7175 432.214-96.7175 439.807ZM-96.7175 494.835-96.7175 494.863C-96.7175 502.456-102.874 508.613-110.468 508.613-118.061 508.613-124.218 502.456-124.218 494.863L-124.218 494.835C-124.218 487.241-118.061 481.085-110.468 481.085-102.874 481.085-96.7175 487.241-96.7175 494.835ZM-96.7175 549.863-96.7175 549.89C-96.7175 557.484-102.874 563.64-110.468 563.64-118.061 563.64-124.218 557.484-124.218 549.89L-124.218 549.863C-124.218 542.269-118.061 536.113-110.468 536.113-102.874 536.113-96.7175 542.269-96.7175 549.863ZM-96.7175 604.89-96.7175 604.918C-96.7175 612.512-102.874 618.668-110.468 618.668-118.061 618.668-124.218 612.512-124.218 604.918L-124.218 604.89C-124.218 597.296-118.061 591.14-110.468 591.14-102.874 591.14-96.7175 597.296-96.7175 604.89ZM-96.7175 659.918-96.7175 659.945C-96.7175 667.539-102.874 673.695-110.468 673.695-118.061 673.695-124.218 667.539-124.218 659.945L-124.218 659.918C-124.218 652.324-118.061 646.168-110.468 646.168-102.874 646.168-96.7175 652.324-96.7175 659.918ZM-96.7175 714.945-96.7175 714.973C-96.7175 722.567-102.874 728.723-110.468 728.723-118.061 728.723-124.218 722.567-124.218 714.973L-124.218 714.945C-124.218 707.351-118.061 701.195-110.468 701.195-102.874 701.195-96.7175 707.351-96.7175 714.945ZM-96.7175 769.973-96.7175 770C-96.7175 777.594-102.874 783.75-110.468 783.75-118.061 783.75-124.218 777.594-124.218 770L-124.218 769.973C-124.218 762.379-118.061 756.223-110.468 756.223-102.874 756.223-96.7175 762.379-96.7175 769.973ZM-96.7175 825-96.7175 825.028C-96.7175 832.622-102.874 838.778-110.468 838.778-118.061 838.778-124.218 832.622-124.218 825.028L-124.218 825C-124.218 817.406-118.061 811.25-110.468 811.25-102.874 811.25-96.7175 817.406-96.7175 825ZM-96.7175 880.028-96.7175 880.055C-96.7175 887.649-102.874 893.805-110.468 893.805-118.061 893.805-124.218 887.649-124.218 880.055L-124.218 880.028C-124.218 872.434-118.061 866.278-110.468 866.278-102.874 866.278-96.7175 872.434-96.7175 880.028ZM-88.9142 899.752-88.8867 899.752C-81.2928 899.752-75.1367 905.908-75.1367 913.502-75.1367 921.096-81.2928 927.252-88.8867 927.252L-88.9142 927.252C-96.5081 927.252-102.664 921.096-102.664 913.502-102.664 905.908-96.5081 899.752-88.9142 899.752ZM-33.8867 899.752-33.8592 899.752C-26.2653 899.752-20.1092 905.908-20.1092 913.502-20.1092 921.096-26.2653 927.252-33.8592 927.252L-33.8867 927.252C-41.4806 927.252-47.6367 921.096-47.6367 913.502-47.6367 905.908-41.4806 899.752-33.8867 899.752ZM21.1408 899.752 21.1683 899.752C28.7622 899.752 34.9183 905.908 34.9183 913.502 34.9183 921.096 28.7622 927.252 21.1683 927.252L21.1408 927.252C13.5469 927.252 7.39081 921.096 7.39081 913.502 7.39081 905.908 13.5469 899.752 21.1408 899.752ZM76.1683 899.752 76.1958 899.752C83.7897 899.752 89.9458 905.908 89.9458 913.502 89.9458 921.096 83.7897 927.252 76.1958 927.252L76.1683 927.252C68.5744 927.252 62.4183 921.096 62.4183 913.502 62.4183 905.908 68.5744 899.752 76.1683 899.752ZM131.196 899.752 131.223 899.752C138.817 899.752 144.973 905.908 144.973 913.502 144.973 921.096 138.817 927.252 131.223 927.252L131.196 927.252C123.602 927.252 117.446 921.096 117.446 913.502 117.446 905.908 123.602 899.752 131.196 899.752ZM151.25 892.279 151.25 892.251C151.25 884.657 157.406 878.501 165 878.501 172.594 878.501 178.75 884.657 178.75 892.251L178.75 892.279C178.75 899.872 172.594 906.029 165 906.029 157.406 906.029 151.25 899.872 151.25 892.279ZM151.25 837.251 151.25 837.224C151.25 829.63 157.406 823.474 165 823.474 172.594 823.474 178.75 829.63 178.75 837.224L178.75 837.251C178.75 844.845 172.594 851.001 165 851.001 157.406 851.001 151.25 844.845 151.25 837.251ZM165 817.02 137.5 844.52 165 762.02 192.5 844.52Z" fill="#0000FF" transform="matrix(1.83697e-16 1 1 -1.83697e-16 2906 959)"/><path d="M262 1124 427 959 592 1124 427 1289Z" stroke="#C00000" stroke-width="27.5" stroke-linejoin="round" stroke-miterlimit="10" fill="#C00000" fill-rule="evenodd"/><text font-family="Arial,Arial_MSFontService,sans-serif" font-weight="700" font-size="41" transform="matrix(1 0 0 1 3555.87 655)">One <tspan fill="#0000FF" font-size="41" x="91.6668" y="0">Security Asset</tspan><tspan font-size="41" x="0" y="50">is </tspan><tspan font-style="italic" font-size="41" x="45.8335" y="50">Policy Protected by</tspan><tspan font-size="41" x="0" y="99">one</tspan><tspan font-size="41" x="73.3335" y="99">-</tspan>or<tspan font-size="41" x="128.334" y="99">-</tspan>more<tspan fill="#0000FF" font-size="41" x="0" y="149">Internal Policies</tspan></text><g clip-path="url(#clip1)"><g clip-path="url(#clip2)"><g clip-path="url(#clip3)"><path d="M2201.27 1207.29C2199.62 1208.37 2197.77 1208.89 2195.93 1208.89 2192.75 1208.89 2189.63 1207.34 2187.76 1204.48 2184.8 1199.97 2186.06 1193.92 2190.57 1190.96L2216.67 1173.86 2199.47 1147.56C2196.52 1143.05 2197.78 1137 2202.29 1134.05 2206.8 1131.1 2212.85 1132.36 2215.8 1136.87L2233 1163.16 2274 1136.3 2274 968.76C2274 963.37 2269.63 959 2264.24 959L2188.14 959 2219.57 1012.34C2221.16 1015.04 2221.36 1018.34 2220.1 1021.21L2208.96 1046.59C2207.35 1050.25 2203.77 1052.43 2200.01 1052.43 2198.7 1052.43 2197.37 1052.17 2196.1 1051.6 2191.16 1049.44 2188.92 1043.68 2191.08 1038.74L2200.22 1017.94 2165.49 959 1953.76 959C1948.37 959 1944 963.37 1944 968.76L1944 1091.87 2028.34 1038.95C2031.24 1037.13 2034.9 1036.97 2037.96 1038.53L2078.99 1059.46 2091.99 1041.5C2093.82 1038.96 2096.76 1037.46 2099.89 1037.46L2133.73 1037.46C2139.12 1037.46 2143.49 1041.83 2143.49 1047.22 2143.49 1052.61 2139.12 1056.98 2133.73 1056.98L2104.88 1056.98 2096.59 1068.43 2134.91 1087.98C2139.71 1090.43 2141.62 1096.31 2139.17 1101.11 2136.72 1105.91 2130.84 1107.81 2126.04 1105.37L2034.02 1058.43 1944 1114.92 1944 1279.24C1944 1284.63 1948.37 1289 1953.76 1289L2060.66 1289 2019.51 1187.2C2017.49 1182.2 2019.9 1176.51 2024.9 1174.49 2029.9 1172.47 2035.59 1174.88 2037.61 1179.88L2046.35 1201.51 2083.21 1175.56C2087.62 1172.46 2093.71 1173.51 2096.81 1177.92 2099.91 1182.33 2098.86 1188.42 2094.45 1191.52L2053.86 1220.1 2081.72 1289 2264.24 1289C2269.63 1289 2274 1284.63 2274 1279.24L2274 1159.64 2201.27 1207.29Z" stroke="#FFC000" stroke-width="0.64453" fill="#FFC000"/></g></g></g><path d="M1797.75 1110.25 1934.52 1110.25 1934.52 1137.75 1797.75 1137.75ZM1811.5 1165.25 1729 1124 1811.5 1082.75Z" fill="#FFC000"/><text font-family="Century Gothic,Century Gothic_MSFontService,sans-serif" font-weight="700" font-size="110" transform="matrix(1 0 0 1 933.226 1162)">DS<tspan font-size="110" x="1914.41" y="0">IC</tspan><tspan font-size="110" x="3056.52" y="0">EC</tspan><tspan font-size="110" x="2502.05" y="4">SA</tspan><tspan font-size="110" x="-566.373" y="0">TV</tspan><tspan font-family="Arial,Arial_MSFontService,sans-serif" font-size="110" x="1100.02" y="-1">VA</tspan><tspan font-size="110" x="486.045" y="0">VP</tspan><tspan font-family="Arial,Arial_MSFontService,sans-serif" font-size="41" x="-3.44959" y="190">One </tspan><tspan fill="#FFC000" font-family="Arial,Arial_MSFontService,sans-serif" font-size="41" x="88.2171" y="190">Digital System</tspan><tspan font-family="Arial,Arial_MSFontService,sans-serif" font-size="41" x="-3.44959" y="240">is defined by </tspan><tspan font-family="Arial,Arial_MSFontService,sans-serif" font-size="41" x="-3.44959" y="289">one</tspan><tspan font-family="Arial,Arial_MSFontService,sans-serif" font-size="41" x="69.8838" y="289">-</tspan><tspan font-family="Arial,Arial_MSFontService,sans-serif" font-size="41" x="83.6338" y="289">or</tspan><tspan font-family="Arial,Arial_MSFontService,sans-serif" font-size="41" x="124.884" y="289">-</tspan><tspan font-family="Arial,Arial_MSFontService,sans-serif" font-size="41" x="138.634" y="289">more</tspan><tspan fill="#FFC000" font-family="Arial,Arial_MSFontService,sans-serif" font-size="41" x="-3.44959" y="339">Value Processes</tspan><tspan font-family="Arial,Arial_MSFontService,sans-serif" font-size="41" x="705.456" y="190">One </tspan><tspan fill="#FFC000" font-family="Arial,Arial_MSFontService,sans-serif" font-size="41" x="797.123" y="190">Value Process</tspan><tspan font-family="Arial,Arial_MSFontService,sans-serif" font-size="41" x="761.602" y="240">is enabled by </tspan><tspan font-family="Arial,Arial_MSFontService,sans-serif" font-size="41" x="770.769" y="289">one</tspan><tspan font-family="Arial,Arial_MSFontService,sans-serif" font-size="41" x="844.102" y="289">-</tspan><tspan font-family="Arial,Arial_MSFontService,sans-serif" font-size="41" x="857.852" y="289">or</tspan><tspan font-family="Arial,Arial_MSFontService,sans-serif" font-size="41" x="899.102" y="289">-</tspan><tspan font-family="Arial,Arial_MSFontService,sans-serif" font-size="41" x="912.852" y="289">more </tspan><tspan fill="#FFC000" font-family="Arial,Arial_MSFontService,sans-serif" font-size="41" x="763.894" y="339">Value Assets</tspan></text><path d="M3338 959 3668 959 3668 1289 3338 1289Z" stroke="#0000FF" stroke-width="32.0833" stroke-linejoin="round" stroke-miterlimit="10" fill="none" fill-rule="evenodd"/><path d="M3126 1110.25 3153.5 1110.25 3153.5 1137.75 3126 1137.75ZM3181 1110.25 3208.5 1110.25 3208.5 1137.75 3181 1137.75ZM3236 1110.25 3263.5 1110.25 3263.5 1137.75 3236 1137.75ZM3291 1110.25 3318.5 1110.25 3318.5 1137.75 3291 1137.75ZM3126 1124 3153.5 1151.5 3071 1124 3153.5 1096.5Z" fill="#0000FF"/><text font-family="Arial,Arial_MSFontService,sans-serif" font-weight="700" font-size="41" transform="matrix(1 0 0 1 3211.5 1195)">One <tspan fill="#0000FF" font-size="41" x="-68.75" y="50">Internal </tspan><tspan fill="#0000FF" font-size="41" x="-66.4583" y="99">Policy</tspan><tspan font-size="41" x="-171.875" y="149">is fulfilled by </tspan><tspan font-size="41" x="-162.708" y="198">one</tspan><tspan font-size="41" x="-89.375" y="198">-</tspan>or<tspan font-size="41" x="-34.375" y="198">-</tspan><tspan font-size="41" x="-20.625" y="198">more </tspan><tspan fill="#0000FF" font-size="41" x="-82.5" y="248">Security </tspan><tspan fill="#0000FF" font-size="41" x="-55" y="297">Assets</tspan></text><path d="M415.25 961.583 415.25 512.221C415.25 504.628 421.406 498.471 429 498.471L3505.16 498.471C3512.75 498.471 3518.91 504.628 3518.91 512.221L3518.91 902 3491.41 902 3491.41 512.221 3505.16 525.971 429 525.971 442.75 512.221 442.75 961.583ZM3505.16 902 3532.66 874.5 3505.16 957 3477.66 874.5Z" fill="#C00000"/><path d="M415.25 961.583 415.25 678.893C415.25 671.299 421.406 665.143 429 665.143L2111.71 665.143C2119.3 665.143 2125.46 671.299 2125.46 678.893L2125.46 902 2097.96 902 2097.96 678.893 2111.71 692.643 429 692.643 442.75 678.893 442.75 961.583ZM2111.71 902 2139.21 874.5 2111.71 957 2084.21 874.5Z" fill="#C00000"/></g></svg>