<svg width="3659" height="1359" xmlns="http://www.w3.org/2000/svg" xmlns:xlink="http://www.w3.org/1999/xlink" xml:space="preserve" overflow="hidden"><g transform="translate(-55 -511)"><path d="M1431 1015 1761 1015 1761 1345 1431 1345Z" stroke="#FFC000" stroke-width="27.5" stroke-linecap="round" stroke-linejoin="round" stroke-miterlimit="10" fill="#FFC000" fill-rule="evenodd"/><text font-family="Century Gothic,Century Gothic_MSFontService,sans-serif" font-weight="700" font-size="64" transform="matrix(1 0 0 1 1504.43 1166)">Value </text><text font-family="Century Gothic,Century Gothic_MSFontService,sans-serif" font-weight="700" font-size="64" transform="matrix(1 0 0 1 1513.3 1243)">Asset</text><path d="M478 1345 560.5 1015 725.5 1015 808 1345Z" stroke="#FFC000" stroke-width="27.5" stroke-linejoin="round" stroke-miterlimit="10" fill="#FFC000" fill-rule="evenodd"/><text font-family="Century Gothic,Century Gothic_MSFontService,sans-serif" font-weight="700" font-size="64" transform="matrix(1 0 0 1 525.729 1177)">Internal</text><text font-family="Century Gothic,Century Gothic_MSFontService,sans-serif" font-weight="700" font-size="64" transform="matrix(1 0 0 1 539.777 1254)">Person</text><path d="M3370 1141.05 3535 1015 3700 1141.05 3636.98 1345 3433.02 1345Z" stroke="#FF9900" stroke-width="27.5" stroke-linejoin="round" stroke-miterlimit="10" fill="#FF9900" fill-rule="evenodd"/><path d="M990 1015 1320 1180 990 1345Z" stroke="#FFC000" stroke-width="27.5" stroke-linecap="round" stroke-linejoin="round" stroke-miterlimit="10" fill="#FFC000" fill-rule="evenodd"/><path d="M69.0001 1180 234 1015 399 1180 234 1345Z" stroke="#C00000" stroke-width="27.5" stroke-linejoin="round" stroke-miterlimit="10" fill="#C00000" fill-rule="evenodd"/><path d="M635.188 1018.08 635.188 908.754C635.188 903.059 639.805 898.442 645.5 898.442L1598.43 898.442C1604.12 898.442 1608.74 903.059 1608.74 908.754L1608.74 961.937 1588.11 961.937 1588.11 908.754 1598.43 919.067 645.5 919.067 655.813 908.754 655.813 1018.08ZM1629.36 951.625 1598.43 1013.5 1567.49 951.625Z" fill="#FFC000"/><path d="M653.812 1345.5 653.812 1428 643.5 1417.69 899.877 1417.69 889.565 1428 889.565 1180.5C889.565 1174.8 894.182 1170.19 899.877 1170.19L939.695 1170.19 939.695 1190.81 899.877 1190.81 910.19 1180.5 910.19 1428C910.19 1433.7 905.573 1438.31 899.877 1438.31L643.5 1438.31C637.805 1438.31 633.188 1433.7 633.188 1428L633.188 1345.5ZM929.382 1149.56 991.257 1180.5 929.382 1211.44Z" fill="#FFC000"/><path d="M0 10.3125-82.5 10.3125-72.1875 0-72.1875 440.169-82.5 429.856 30.9375 429.856 30.9375 450.481-82.5 450.481C-88.1954 450.481-92.8125 445.864-92.8125 440.169L-92.8125 0C-92.8125-5.69544-88.1954-10.3125-82.5-10.3125L0-10.3125ZM20.625 409.231 82.5 440.169 20.625 471.106Z" fill="#FFC000" transform="matrix(-6.12323e-17 -1 -1 6.12323e-17 1595.67 1346)"/><path d="M3525.03 1015.5 3525.03 933 3535.35 943.312 3222.67 943.312 3232.98 933 3232.98 1180.5C3232.98 1186.2 3228.37 1190.81 3222.67 1190.81L3176.06 1190.81 3176.06 1170.19 3222.67 1170.19 3212.36 1180.5 3212.36 933C3212.36 927.305 3216.98 922.687 3222.67 922.687L3535.35 922.687C3541.04 922.687 3545.66 927.305 3545.66 933L3545.66 1015.5ZM3186.37 1211.44 3124.5 1180.5 3186.37 1149.56Z" fill="#FF9900"/><path d="M3548.53 1343.5 3548.53 1525C3548.53 1530.7 3543.92 1535.31 3538.22 1535.31L2358.5 1535.31C2352.8 1535.31 2348.19 1530.7 2348.19 1525L2348.19 1399.65 2368.81 1399.65 2368.81 1525 2358.5 1514.69 3538.22 1514.69 3527.91 1525 3527.91 1343.5ZM2327.56 1409.96 2358.5 1348.08 2389.44 1409.96Z" fill="#FF9900"/><path d="M224.187 1015.19 224.187 652.655C224.187 646.959 228.805 642.342 234.5 642.342L1465.25 642.342C1470.94 642.342 1475.56 646.959 1475.56 652.655L1475.56 713.938 1454.93 713.938 1454.93 652.655 1465.25 662.967 234.5 662.967 244.812 652.655 244.812 1015.19ZM1496.18 703.625 1465.25 765.5 1434.31 703.625Z" fill="#C00000"/><path d="M460 765 1787.63 765" stroke="#C00000" stroke-width="13.75" stroke-linecap="round" stroke-linejoin="round" stroke-miterlimit="10" fill="none" fill-rule="evenodd"/><path d="M460 1640 1787.63 1640" stroke="#0000FF" stroke-width="13.75" stroke-linecap="round" stroke-linejoin="round" stroke-miterlimit="10" fill="none" fill-rule="evenodd"/><path d="M1844 826 1844 1552.28" stroke="#0000FF" stroke-width="13.75" stroke-linecap="round" stroke-linejoin="round" stroke-miterlimit="10" fill="none" fill-rule="evenodd"/><text fill="#FFC000" font-family="Gill Sans MT,Gill Sans MT_MSFontService,sans-serif" font-weight="700" font-size="83" transform="matrix(1 0 0 1 1188.28 1535)">1: </text><text font-family="Gill Sans MT,Gill Sans MT_MSFontService,sans-serif" font-weight="700" font-size="83" transform="matrix(1 0 0 1 1270.55 1535)">Enables</text><text fill="#FFC000" font-family="Gill Sans MT,Gill Sans MT_MSFontService,sans-serif" font-weight="700" font-size="83" transform="matrix(1 0 0 1 566.404 1535)">2: </text><text font-family="Gill Sans MT,Gill Sans MT_MSFontService,sans-serif" font-weight="700" font-size="83" transform="matrix(1 0 0 1 648.675 1535)">Operates</text><text fill="#FFC000" font-family="Gill Sans MT,Gill Sans MT_MSFontService,sans-serif" font-weight="700" font-size="83" transform="matrix(1 0 0 1 646.262 872)">3: </text><text font-family="Gill Sans MT,Gill Sans MT_MSFontService,sans-serif" font-weight="700" font-size="83" transform="matrix(1 0 0 1 728.533 872)">Controls</text><text fill="#FF9900" font-family="Gill Sans MT,Gill Sans MT_MSFontService,sans-serif" font-weight="700" font-size="83" transform="matrix(1 0 0 1 3158.64 1627)">9:  Report </text><text fill="#FF9900" font-family="Gill Sans MT,Gill Sans MT_MSFontService,sans-serif" font-weight="700" font-size="83" transform="matrix(1 0 0 1 3133.91 885)">8:  Validate </text><text fill="#C00000" font-family="Gill Sans MT,Gill Sans MT_MSFontService,sans-serif" font-weight="700" font-size="83" transform="matrix(1 0 0 1 265.179 615)">4:  Threaten </text><text font-family="Century Gothic,Century Gothic_MSFontService,sans-serif" font-weight="700" font-size="64" transform="matrix(1 0 0 1 995.816 1157)">Value</text><text font-family="Century Gothic,Century Gothic_MSFontService,sans-serif" font-weight="700" font-size="64" transform="matrix(1 0 0 1 995.816 1234)">Process</text><text fill="#FFFFFF" font-family="Century Gothic,Century Gothic_MSFontService,sans-serif" font-weight="700" font-size="55" transform="matrix(1 0 0 1 3397.97 1167)">Assurance</text><text fill="#FFFFFF" font-family="Century Gothic,Century Gothic_MSFontService,sans-serif" font-weight="700" font-size="55" transform="matrix(1 0 0 1 3480.77 1233)">Plan</text><path d="M2970.12 1345.5 2970.12 1833.55C2970.12 1839.25 2965.5 1843.86 2959.81 1843.86L1465.5 1843.86C1459.8 1843.86 1455.19 1839.25 1455.19 1833.55L1455.19 1691.69 1475.81 1691.69 1475.81 1833.55 1465.5 1823.24 2959.81 1823.24 2949.49 1833.55 2949.49 1345.5ZM1434.56 1702 1465.5 1640.13 1496.44 1702Z" fill="#0000FF"/><path d="M0-11.4583 159.1-11.4583C165.428-11.4583 170.558-6.32826 170.558 0L170.558 0.000360892 159.1-11.458 260.908-11.458 260.908 11.4587 159.1 11.4587C152.772 11.4587 147.642 6.32862 147.642 0.000360892L147.642 0 159.1 11.4583 0 11.4583ZM249.45-34.3746 318.2 0.000360892 249.45 34.3754Z" fill="#0000FF" transform="matrix(-1 1.22465e-16 1.22465e-16 1 2190.7 1180.5)"/><path d="M2520.5 1170.19 2742.81 1170.19 2742.81 1190.81 2520.5 1190.81ZM2732.5 1149.56 2794.37 1180.5 2732.5 1211.44Z" fill="#0000FF"/><text fill="#0000FF" font-family="Gill Sans MT,Gill Sans MT_MSFontService,sans-serif" font-weight="700" font-size="83" transform="matrix(1 0 0 1 2117.66 967)">5:  </text><text fill="#0000FF" font-family="Gill Sans MT,Gill Sans MT_MSFontService,sans-serif" font-weight="700" font-size="83" transform="matrix(1 0 0 1 1885.75 1066)">Protect </text><text fill="#0000FF" font-family="Gill Sans MT,Gill Sans MT_MSFontService,sans-serif" font-weight="700" font-size="83" transform="matrix(1 0 0 1 2495.76 1800)">7:  Secure </text><text fill="#0000FF" font-family="Gill Sans MT,Gill Sans MT_MSFontService,sans-serif" font-weight="700" font-size="83" transform="matrix(1 0 0 1 2535.84 967)">Resource</text><text fill="#0000FF" font-family="Gill Sans MT,Gill Sans MT_MSFontService,sans-serif" font-weight="700" font-size="83" transform="matrix(1 0 0 1 2535.84 1066)">6: </text><path d="M2190 1180C2190 1088.87 2263.87 1015 2355 1015 2446.13 1015 2520 1088.87 2520 1180 2520 1271.13 2446.13 1345 2355 1345 2263.87 1345 2190 1271.13 2190 1180Z" stroke="#0000FF" stroke-width="27.5" stroke-linejoin="round" stroke-miterlimit="10" fill="#0000FF" fill-rule="evenodd"/><path d="M2794 1015 3124 1015 3124 1345 2794 1345Z" stroke="#0000FF" stroke-width="27.5" stroke-linejoin="round" stroke-miterlimit="10" fill="none" fill-rule="evenodd"/><text fill="#0000FF" font-family="Century Gothic,Century Gothic_MSFontService,sans-serif" font-weight="700" font-size="64" transform="matrix(1 0 0 1 2835.87 1166)">Security </text><text fill="#0000FF" font-family="Century Gothic,Century Gothic_MSFontService,sans-serif" font-weight="700" font-size="64" transform="matrix(1 0 0 1 2877.12 1243)">Asset</text><text fill="#FFFFFF" font-family="Century Gothic,Century Gothic_MSFontService,sans-serif" font-weight="700" font-size="64" transform="matrix(1 0 0 1 2235.86 1165)">Security</text><text fill="#FFFFFF" font-family="Century Gothic,Century Gothic_MSFontService,sans-serif" font-weight="700" font-size="64" transform="matrix(1 0 0 1 2265.95 1242)">Policy</text><text fill="#FFFFFF" font-family="Century Gothic,Century Gothic_MSFontService,sans-serif" font-weight="700" font-size="64" transform="matrix(1 0 0 1 138.066 1168)">Threat</text><text fill="#FFFFFF" font-family="Century Gothic,Century Gothic_MSFontService,sans-serif" font-weight="700" font-size="64" transform="matrix(1 0 0 1 128.326 1245)">Vector</text></g></svg>