<?xml version="1.0" encoding="utf-8"?>
<!-- Generator: Adobe Illustrator 19.2.0, SVG Export Plug-In . SVG Version: 6.00 Build 0)  -->
<svg version="1.1" id="Layer_1" xmlns="http://www.w3.org/2000/svg" xmlns:xlink="http://www.w3.org/1999/xlink" x="0px" y="0px"
	 viewBox="0 0 297.5 46.9" style="enable-background:new 0 0 297.5 46.9;" xml:space="preserve">
<style type="text/css">
	.st0{fill:#FFFFFF;}
</style>
<path class="st0" d="M26.3,0.5C13.7,0.5,3.4,10.8,3.4,23.4s10.3,22.9,22.9,22.9S49.2,36,49.2,23.4S38.9,0.5,26.3,0.5z M26.3,44.4
	c-11.5,0-20.9-9.4-20.9-21S14.8,2.5,26.3,2.5s20.9,9.4,20.9,20.9S37.8,44.4,26.3,44.4z"/>
<path class="st0" d="M26.3,5.3c-10,0-18.2,8.1-18.2,18.2s8.1,18.2,18.2,18.2s18.2-8.1,18.2-18.2S36.3,5.3,26.3,5.3z M26.3,39.7
	c-8.9,0-16.2-7.3-16.2-16.2S17.3,7.2,26.3,7.2s16.2,7.3,16.2,16.2S35.2,39.7,26.3,39.7z"/>
<circle class="st0" cx="26.3" cy="23.4" r="3.9"/>
<path class="st0" d="M26.3,10.4c-7.2,0-13,5.8-13,13s5.8,13,13,13s13-5.8,13-13S33.5,10.4,26.3,10.4z M36.5,22.5
	c0.5,0.5,0.5,1.3,0,1.8c-1.6,1.8-5.6,5.5-10.2,5.5s-8.6-3.7-10.2-5.5c-0.5-0.5-0.5-1.3,0-1.8c1.6-1.8,5.6-5.5,10.2-5.5
	S34.9,20.8,36.5,22.5z"/>
<path class="st0" d="M67.9,23.3c-0.6-0.4-1.6-0.9-2.8-1.4c-1.1-0.4-1.8-0.7-2.3-1s-0.8-0.6-1.1-1c-0.2-0.4-0.3-0.8-0.3-1.4
	c0-0.8,0.3-1.4,0.9-1.8c0.6-0.4,1.4-0.6,2.4-0.6c1.3,0,2.6,0.3,4.1,0.9l0.7-1.8c-1.4-0.6-3-1-4.7-1c-1.6,0-2.9,0.4-3.9,1.2
	c-1,0.8-1.5,1.8-1.5,3.2c0,1.2,0.3,2.2,1,3s1.8,1.5,3.4,2c1.1,0.4,1.9,0.8,2.5,1.1c0.5,0.3,0.9,0.7,1.2,1c0.2,0.4,0.3,0.8,0.3,1.4
	c0,0.9-0.3,1.5-1,2c-0.6,0.5-1.6,0.7-2.9,0.7c-0.7,0-1.5-0.1-2.4-0.3c-0.9-0.2-1.6-0.4-2.4-0.7v2c1.1,0.5,2.7,0.8,4.7,0.8
	c1.9,0,3.4-0.4,4.5-1.3c1.1-0.9,1.6-2,1.6-3.5c0-0.8-0.1-1.5-0.4-2C68.9,24.3,68.5,23.8,67.9,23.3z"/>
<path class="st0" d="M78.9,18.4c-0.9,0-1.6,0.2-2.3,0.5c-0.6,0.3-1.2,0.8-1.7,1.5h-0.1l-0.3-1.7h-1.7v18.4h2.1v-5.2
	c0-0.5,0-1-0.1-1.6v-0.5h0.1c0.9,1.2,2.2,1.8,3.9,1.8c1.7,0,3-0.6,3.9-1.8c0.9-1.2,1.4-2.8,1.4-4.9s-0.5-3.7-1.4-4.9
	C81.8,19,80.5,18.4,78.9,18.4z M81,28.6c-0.6,0.9-1.4,1.3-2.5,1.3c-1.3,0-2.2-0.4-2.8-1.2c-0.6-0.8-0.9-2-0.9-3.7v-0.4
	c0-1.5,0.3-2.6,0.9-3.4c0.6-0.7,1.5-1.1,2.7-1.1c1.1,0,1.9,0.4,2.5,1.2c0.6,0.8,0.9,2,0.9,3.6C81.9,26.5,81.6,27.7,81,28.6z"/>
<path class="st0" d="M93.5,18.5c-0.9,0-1.7,0.2-2.4,0.5c-0.7,0.3-1.2,0.8-1.6,1.4h-0.1c0.1-0.5,0.1-1.1,0.1-1.8v-5.3h-2.1v18h2.1
	v-6.6c0-1.7,0.3-2.8,0.9-3.6c0.6-0.7,1.5-1.1,2.8-1.1c1,0,1.7,0.3,2.2,0.8s0.7,1.3,0.7,2.3v8.1h2.1v-8.3c0-1.6-0.4-2.8-1.2-3.5
	C96.2,18.8,95,18.5,93.5,18.5z"/>
<path class="st0" d="M107,18.4c-1.7,0-3.1,0.6-4.1,1.8c-1,1.2-1.5,2.8-1.5,4.9c0,2,0.5,3.6,1.6,4.8c1.1,1.2,2.6,1.7,4.5,1.7
	c0.8,0,1.6-0.1,2.2-0.2s1.3-0.3,2-0.6V29c-0.8,0.3-1.5,0.6-2.1,0.7s-1.3,0.2-1.9,0.2c-1.3,0-2.3-0.4-3-1.1s-1.1-1.8-1.1-3.3h8.7
	v-1.3c0-1.8-0.5-3.2-1.4-4.2C109.9,19,108.6,18.4,107,18.4z M103.6,23.8c0.1-1.1,0.5-2,1-2.7c0.6-0.6,1.4-1,2.4-1s1.7,0.3,2.3,0.9
	c0.5,0.6,0.8,1.5,0.8,2.7h-6.5V23.8z"/>
<path class="st0" d="M119.3,19.1c-0.7,0.4-1.2,1.1-1.7,1.9h-0.1l-0.2-2.3h-1.7v12.7h2.1v-6.8c0-0.8,0.2-1.5,0.5-2.2s0.8-1.2,1.4-1.5
	c0.6-0.4,1.2-0.6,1.9-0.6c0.4,0,0.9,0.1,1.4,0.2l0.3-1.9c-0.4-0.1-0.9-0.1-1.5-0.1C120.7,18.4,119.9,18.7,119.3,19.1z"/>
<rect x="125.3" y="18.7" class="st0" width="2.1" height="12.7"/>
<path class="st0" d="M126.4,13.9c-0.3,0-0.6,0.1-0.9,0.3c-0.2,0.2-0.4,0.5-0.4,1s0.1,0.8,0.4,1c0.2,0.2,0.5,0.3,0.9,0.3
	c0.3,0,0.6-0.1,0.9-0.3c0.2-0.2,0.4-0.6,0.4-1c0-0.5-0.1-0.8-0.4-1C127,14,126.7,13.9,126.4,13.9z"/>
<path class="st0" d="M136.7,20.3c0.8,0,1.7,0.2,2.7,0.6l0.6-1.7c-0.4-0.2-0.9-0.4-1.5-0.5s-1.2-0.2-1.8-0.2c-1.9,0-3.4,0.6-4.4,1.7
	c-1,1.2-1.5,2.8-1.5,4.9s0.5,3.7,1.5,4.8c1,1.1,2.4,1.7,4.3,1.7c1.3,0,2.4-0.2,3.3-0.7V29c-1.1,0.5-2.2,0.7-3.3,0.7
	c-1.2,0-2.1-0.4-2.7-1.2c-0.6-0.8-0.9-2-0.9-3.5c0-1.6,0.3-2.8,0.9-3.6C134.4,20.7,135.4,20.3,136.7,20.3z"/>
<path class="st0" d="M156.6,16.1c1.2,0,2.5,0.3,3.9,0.9l0.9-1.8c-1.3-0.7-2.9-1-4.7-1c-1.7,0-3.1,0.4-4.4,1.1
	c-1.2,0.7-2.2,1.7-2.8,3s-1,2.8-1,4.6c0,2.8,0.7,4.9,2,6.5c1.3,1.5,3.3,2.3,5.8,2.3c0.9,0,1.6,0,2.3-0.1s1.4-0.3,2.1-0.5v-1.9
	c-1.5,0.4-2.9,0.7-4.1,0.7c-1.9,0-3.3-0.6-4.3-1.8c-1-1.2-1.5-2.9-1.5-5.1c0-2.1,0.5-3.8,1.6-5C153.3,16.7,154.7,16.1,156.6,16.1z"
	/>
<path class="st0" d="M169.3,25.9c-0.2,0.5-0.4,1.1-0.6,1.9c-0.2,0.8-0.4,1.3-0.5,1.6h-0.1c-0.1-0.7-0.5-1.9-1.1-3.5l-2.7-7.2H162
	l5.1,12.8l-0.7,1.7c-0.3,0.8-0.7,1.3-1.1,1.7c-0.5,0.4-1,0.6-1.7,0.6c-0.5,0-1,0-1.4-0.1v1.7c0.6,0.1,1.1,0.2,1.7,0.2
	c1.1,0,2-0.3,2.7-0.9c0.7-0.6,1.4-1.6,1.9-3l5.5-14.5h-2.3L169.3,25.9z"/>
<path class="st0" d="M182.2,18.5c-1.8,0-3.1,0.6-3.9,1.9h-0.1c0.1-0.9,0.1-1.7,0.1-2.6v-4.4h-2.1v18h1.5c0-0.1,0.2-0.7,0.4-1.6h0.2
	c0.4,0.6,1,1.1,1.6,1.4c0.7,0.3,1.4,0.5,2.3,0.5c1.6,0,2.9-0.6,3.9-1.7s1.4-2.8,1.4-4.9s-0.5-3.7-1.4-4.8
	C185.1,19,183.8,18.5,182.2,18.5z M184.4,28.7c-0.6,0.8-1.4,1.3-2.6,1.3c-1.3,0-2.2-0.4-2.8-1.1s-0.9-2-0.9-3.7V25
	c0-1.7,0.3-3,0.8-3.7c0.6-0.7,1.5-1.1,2.8-1.1c1.2,0,2,0.4,2.6,1.2c0.6,0.8,0.8,2,0.8,3.6C185.3,26.6,185,27.8,184.4,28.7z"/>
<path class="st0" d="M195.7,18.4c-1.7,0-3.1,0.6-4.1,1.8c-1,1.2-1.5,2.8-1.5,4.9c0,2,0.5,3.6,1.6,4.8c1.1,1.2,2.6,1.7,4.5,1.7
	c0.8,0,1.6-0.1,2.2-0.2c0.6-0.1,1.3-0.3,2-0.6V29c-0.8,0.3-1.5,0.6-2.1,0.7s-1.3,0.2-1.9,0.2c-1.3,0-2.3-0.4-3-1.1s-1.1-1.8-1.1-3.3
	h8.7v-1.3c0-1.8-0.5-3.2-1.4-4.2C198.5,19,197.3,18.4,195.7,18.4z M192.3,23.8c0.1-1.1,0.5-2,1-2.7c0.6-0.6,1.4-1,2.4-1
	s1.7,0.3,2.3,0.9c0.5,0.6,0.8,1.5,0.8,2.7h-6.5V23.8z"/>
<path class="st0" d="M207.9,19.1c-0.7,0.4-1.2,1.1-1.7,1.9h-0.1l-0.2-2.3h-1.7v12.7h2.1v-6.8c0-0.8,0.2-1.5,0.5-2.2s0.8-1.2,1.4-1.5
	c0.6-0.4,1.2-0.6,1.9-0.6c0.4,0,0.9,0.1,1.4,0.2l0.3-1.9c-0.4-0.1-0.9-0.1-1.5-0.1C209.3,18.4,208.6,18.7,207.9,19.1z"/>
<path class="st0" d="M222.2,23.3c-0.6-0.4-1.6-0.9-2.8-1.4c-1.1-0.4-1.8-0.7-2.3-1s-0.8-0.6-1.1-1c-0.2-0.4-0.3-0.8-0.3-1.4
	c0-0.8,0.3-1.4,0.9-1.8c0.6-0.4,1.4-0.6,2.4-0.6c1.3,0,2.6,0.3,4.1,0.9l0.7-1.8c-1.4-0.6-3-1-4.7-1c-1.6,0-2.9,0.4-3.9,1.2
	c-1,0.8-1.5,1.8-1.5,3.2c0,1.2,0.3,2.2,1,3s1.8,1.5,3.4,2c1.1,0.4,1.9,0.8,2.5,1.1c0.5,0.3,0.9,0.7,1.2,1c0.2,0.4,0.3,0.8,0.3,1.4
	c0,0.9-0.3,1.5-1,2c-0.6,0.5-1.6,0.7-2.9,0.7c-0.7,0-1.5-0.1-2.4-0.3c-0.9-0.2-1.6-0.4-2.4-0.7v2c1.1,0.5,2.7,0.8,4.7,0.8
	c1.9,0,3.4-0.4,4.5-1.3s1.6-2,1.6-3.5c0-0.8-0.1-1.5-0.4-2C223.3,24.3,222.9,23.8,222.2,23.3z"/>
<path class="st0" d="M233.3,18.5c-0.9,0-1.7,0.2-2.4,0.5s-1.2,0.8-1.6,1.4h-0.1c0.1-0.5,0.1-1.1,0.1-1.8v-5.3h-2.1v18h2.1v-6.6
	c0-1.7,0.3-2.8,0.9-3.6c0.6-0.7,1.5-1.1,2.8-1.1c1,0,1.7,0.3,2.2,0.8s0.7,1.3,0.7,2.3v8.1h2.1v-8.3c0-1.6-0.4-2.8-1.2-3.5
	C236,18.8,234.8,18.5,233.3,18.5z"/>
<path class="st0" d="M242.9,13.9c-0.3,0-0.6,0.1-0.9,0.3c-0.2,0.2-0.4,0.5-0.4,1s0.1,0.8,0.4,1c0.2,0.2,0.5,0.3,0.9,0.3
	c0.3,0,0.6-0.1,0.9-0.3c0.2-0.2,0.4-0.6,0.4-1c0-0.5-0.1-0.8-0.4-1C243.5,14,243.3,13.9,242.9,13.9z"/>
<rect x="241.9" y="18.7" class="st0" width="2.1" height="12.7"/>
<path class="st0" d="M252.9,18.4c-1.7,0-3.1,0.6-4.1,1.8c-1,1.2-1.5,2.8-1.5,4.9c0,2,0.5,3.6,1.6,4.8c1.1,1.2,2.6,1.7,4.5,1.7
	c0.8,0,1.6-0.1,2.2-0.2s1.3-0.3,2-0.6V29c-0.8,0.3-1.5,0.6-2.1,0.7s-1.3,0.2-1.9,0.2c-1.3,0-2.3-0.4-3-1.1c-0.7-0.7-1.1-1.8-1.1-3.3
	h8.7v-1.3c0-1.8-0.5-3.2-1.4-4.2C255.8,19,254.5,18.4,252.9,18.4z M249.5,23.8c0.1-1.1,0.5-2,1-2.7c0.6-0.6,1.4-1,2.4-1
	s1.7,0.3,2.3,0.9c0.5,0.6,0.8,1.5,0.8,2.7h-6.5V23.8z"/>
<rect x="261.4" y="13.4" class="st0" width="2.1" height="18"/>
<path class="st0" d="M276,18.4c0,0.2,0,0.5,0.1,0.9c0,0.5,0.1,0.8,0.1,0.9H276c-0.9-1.3-2.2-1.9-3.9-1.9c-1.7,0-3,0.6-3.9,1.8
	c-0.9,1.2-1.4,2.8-1.4,4.9s0.5,3.7,1.4,4.9c0.9,1.1,2.2,1.7,3.9,1.7c1.8,0,3.1-0.6,4-1.9h0.1l0.3,1.7h1.7v-18H276V18.4z M276,25.5
	c0,1.6-0.3,2.7-0.9,3.4c-0.6,0.7-1.5,1-2.8,1c-1.1,0-1.9-0.4-2.5-1.2c-0.6-0.8-0.9-2-0.9-3.6s0.3-2.8,0.9-3.7
	c0.6-0.9,1.4-1.3,2.5-1.3c1.3,0,2.2,0.4,2.8,1.1c0.6,0.8,0.9,2,0.9,3.8V25.5z"/>
<polygon class="st0" points="280.1,9.8 282.5,9.8 282.5,16.8 283.5,16.8 283.5,9.8 286,9.8 286,8.9 280.1,8.9 "/>
<path class="st0" d="M294.2,8.9h-1.3l-1.4,3.8c-0.4,1-0.6,1.9-0.8,2.7l0,0c-0.2-0.8-0.5-1.7-0.8-2.7l-1.3-3.8h-1.3l-0.6,7.9h1
	l0.2-3.4c0.1-1.2,0.1-2.5,0.2-3.5l0,0c0.2,0.9,0.5,2,0.9,3.1l1.3,3.8h0.8l1.4-3.8c0.4-1.1,0.7-2.1,1-3l0,0c0,1,0.1,2.3,0.1,3.4
	l0.2,3.5h1L294.2,8.9z"/>
</svg>
