<svg width="50" height="46.9" xmlns="http://www.w3.org/2000/svg">
 <style type="text/css">.st0{fill:#FFFFFF;}</style>

 <g>
  <title>background</title>
  <rect fill="none" id="canvas_background" height="48.9" width="52" y="-1" x="-1"/>
 </g>
 <g>
  <title>Layer 1</title>
  <path id="svg_2" d="m26.3,5.3c-10,0 -18.2,8.1 -18.2,18.2s8.1,18.2 18.2,18.2s18.2,-8.1 18.2,-18.2s-8.2,-18.2 -18.2,-18.2zm0,34.4c-8.9,0 -16.2,-7.3 -16.2,-16.2s7.2,-16.3 16.2,-16.3s16.2,7.3 16.2,16.2s-7.3,16.3 -16.2,16.3z" class="st0"/>
  <circle id="svg_3" r="3.9" cy="23.4" cx="26.3" class="st0"/>
  <path id="svg_4" d="m26.3,10.4c-7.2,0 -13,5.8 -13,13s5.8,13 13,13s13,-5.8 13,-13s-5.8,-13 -13,-13zm10.2,12.1c0.5,0.5 0.5,1.3 0,1.8c-1.6,1.8 -5.6,5.5 -10.2,5.5s-8.6,-3.7 -10.2,-5.5c-0.5,-0.5 -0.5,-1.3 0,-1.8c1.6,-1.8 5.6,-5.5 10.2,-5.5s8.6,3.8 10.2,5.5z" class="st0"/>
 </g>
</svg>