<svg width="3995" height="739" xmlns="http://www.w3.org/2000/svg" xmlns:xlink="http://www.w3.org/1999/xlink" xml:space="preserve" overflow="hidden"><defs><clipPath id="clip0"><rect x="289" y="965" width="3995" height="739"/></clipPath><clipPath id="clip1"><rect x="1985" y="1089" width="331" height="330"/></clipPath><clipPath id="clip2"><rect x="1985" y="1089" width="331" height="330"/></clipPath><clipPath id="clip3"><rect x="1985" y="1089" width="331" height="330"/></clipPath></defs><g clip-path="url(#clip0)" transform="translate(-289 -965)"><path d="M874.5 1254.5 968.781 1089.5 1110.22 1089.5 1204.5 1254.5 1110.22 1419.5 968.781 1419.5Z" stroke="#FFC000" stroke-width="4.58333" stroke-linejoin="round" stroke-miterlimit="10" fill="#FFC000" fill-rule="evenodd"/><path d="M1435.5 1089.5 1765.5 1254.5 1435.5 1419.5Z" stroke="#FFC000" stroke-width="4.58333" stroke-linejoin="round" stroke-miterlimit="10" fill="#FFC000" fill-rule="evenodd"/><path d="M1286.75 1240.25 1423.52 1240.25 1423.52 1267.75 1286.75 1267.75ZM1300.5 1295.25 1218 1254 1300.5 1212.75Z" fill="#FFC000"/><path d="M2371 1240.25 2371.03 1240.25C2378.62 1240.25 2384.78 1246.41 2384.78 1254 2384.78 1261.59 2378.62 1267.75 2371.03 1267.75L2371 1267.75C2363.41 1267.75 2357.25 1261.59 2357.25 1254 2357.25 1246.41 2363.41 1240.25 2371 1240.25ZM2426.03 1240.25 2426.05 1240.25C2433.65 1240.25 2439.8 1246.41 2439.8 1254 2439.8 1261.59 2433.65 1267.75 2426.05 1267.75L2426.03 1267.75C2418.43 1267.75 2412.28 1261.59 2412.28 1254 2412.28 1246.41 2418.43 1240.25 2426.03 1240.25ZM2481.05 1240.25 2481.08 1240.25C2488.68 1240.25 2494.83 1246.41 2494.83 1254 2494.83 1261.59 2488.68 1267.75 2481.08 1267.75L2481.05 1267.75C2473.46 1267.75 2467.3 1261.59 2467.3 1254 2467.3 1246.41 2473.46 1240.25 2481.05 1240.25ZM2536.08 1240.25 2536.11 1240.25C2543.7 1240.25 2549.86 1246.41 2549.86 1254 2549.86 1261.59 2543.7 1267.75 2536.11 1267.75L2536.08 1267.75C2528.49 1267.75 2522.33 1261.59 2522.33 1254 2522.33 1246.41 2528.49 1240.25 2536.08 1240.25ZM2591.11 1240.25 2591.14 1240.25C2598.73 1240.25 2604.89 1246.41 2604.89 1254 2604.89 1261.59 2598.73 1267.75 2591.14 1267.75L2591.11 1267.75C2583.52 1267.75 2577.36 1261.59 2577.36 1254 2577.36 1246.41 2583.52 1240.25 2591.11 1240.25ZM2646.14 1240.25 2646.16 1240.25C2653.76 1240.25 2659.91 1246.41 2659.91 1254 2659.91 1261.59 2653.76 1267.75 2646.16 1267.75L2646.14 1267.75C2638.54 1267.75 2632.39 1261.59 2632.39 1254 2632.39 1246.41 2638.54 1240.25 2646.14 1240.25ZM2701.16 1240.25 2701.19 1240.25C2708.79 1240.25 2714.94 1246.41 2714.94 1254 2714.94 1261.59 2708.79 1267.75 2701.19 1267.75L2701.16 1267.75C2693.57 1267.75 2687.41 1261.59 2687.41 1254 2687.41 1246.41 2693.57 1240.25 2701.16 1240.25ZM2756.19 1240.25 2756.22 1240.25C2763.81 1240.25 2769.97 1246.41 2769.97 1254 2769.97 1261.59 2763.81 1267.75 2756.22 1267.75L2756.19 1267.75C2748.6 1267.75 2742.44 1261.59 2742.44 1254 2742.44 1246.41 2748.6 1240.25 2756.19 1240.25ZM2371 1254 2398.5 1281.5 2316 1254 2398.5 1226.5Z" fill="#0000FF"/><path d="M-13.75-13.75 27.5-13.75 27.5 13.75-13.75 13.75ZM55-13.75 82.5-13.75 82.5 13.75 55 13.75ZM110-13.75 137.5-13.75 137.5 13.75 110 13.75ZM152.747 26.0034 152.747 53.5034 125.247 53.5034 125.247 26.0034ZM152.747 81.0034 152.747 108.503 125.247 108.503 125.247 81.0034ZM152.747 136.003 152.747 163.503 125.247 163.503 125.247 136.003ZM152.747 191.003 152.747 218.503 125.247 218.503 125.247 191.003ZM152.747 246.003 152.747 273.503 125.247 273.503 125.247 246.003ZM152.747 301.003 152.747 328.503 125.247 328.503 125.247 301.003ZM152.747 356.003 152.747 383.503 125.247 383.503 125.247 356.003ZM152.747 411.003 152.747 438.503 125.247 438.503 125.247 411.003ZM152.747 466.003 152.747 493.503 125.247 493.503 125.247 466.003ZM152.747 521.003 152.747 548.503 125.247 548.503 125.247 521.003ZM152.747 576.003 152.747 603.503 125.247 603.503 125.247 576.003ZM152.747 631.003 152.747 658.503 125.247 658.503 125.247 631.003ZM152.747 686.003 152.747 713.503 125.247 713.503 125.247 686.003ZM152.747 741.003 152.747 768.503 125.247 768.503 125.247 741.003ZM152.747 796.003 152.747 823.503 125.247 823.503 125.247 796.003ZM152.747 851.003 152.747 878.503 125.247 878.503 125.247 851.003ZM152.747 906.003 152.747 933.503 125.247 933.503 125.247 906.003ZM152.747 961.003 152.747 988.503 125.247 988.503 125.247 961.003ZM152.747 1016 152.747 1043.5 125.247 1043.5 125.247 1016ZM152.747 1071 152.747 1098.5 125.247 1098.5 125.247 1071ZM152.747 1126 152.747 1153.5 125.247 1153.5 125.247 1126ZM114.976 1170.73 87.4756 1170.73 87.4756 1143.23 114.976 1143.23ZM59.9756 1170.73 59.5833 1170.73 59.5833 1143.23 59.9756 1143.23ZM59.5833 1156.98 87.0833 1184.48 4.58333 1156.98 87.0833 1129.48Z" fill="#0000FF" transform="matrix(1.83697e-16 1 1 -1.83697e-16 2950 1417)"/><path d="M2783 1254C2783 1162.87 2856.87 1089 2948 1089 3039.13 1089 3113 1162.87 3113 1254 3113 1345.13 3039.13 1419 2948 1419 2856.87 1419 2783 1345.13 2783 1254Z" stroke="#0000FF" stroke-width="27.5" stroke-linejoin="round" stroke-miterlimit="10" fill="#0000FF" fill-rule="evenodd"/><path d="M457.25 1091.58 457.25 979.12C457.25 971.526 463.406 965.37 471 965.37L2153.71 965.37C2161.3 965.37 2167.46 971.526 2167.46 979.12L2167.46 1032 2139.96 1032 2139.96 979.12 2153.71 992.87 471 992.87 484.75 979.12 484.75 1091.58ZM2153.71 1032 2181.21 1004.5 2153.71 1087 2126.21 1004.5Z" fill="#C00000"/><path d="M3940 1215.05 4105 1089 4270 1215.05 4206.98 1419 4003.02 1419Z" stroke="#FF9900" stroke-width="27.5" stroke-linejoin="round" stroke-miterlimit="10" fill="#FF9900" fill-rule="evenodd"/><path d="M3558.13 1419 3558.13 1657.93C3558.13 1665.52 3551.98 1671.68 3544.38 1671.68L2156 1671.68C2148.41 1671.68 2142.25 1665.52 2142.25 1657.93L2142.25 1477.09 2169.75 1477.09 2169.75 1657.93 2156 1644.18 3544.38 1644.18 3530.63 1657.93 3530.63 1419ZM2156 1477.09 2128.5 1504.59 2156 1422.09 2183.5 1504.59Z" fill="#0000FF"/><path d="M303 1254 468 1089 633 1254 468 1419Z" stroke="#C00000" stroke-width="27.5" stroke-linejoin="round" stroke-miterlimit="10" fill="#C00000" fill-rule="evenodd"/><g clip-path="url(#clip1)"><g clip-path="url(#clip2)"><g clip-path="url(#clip3)"><path d="M2243.27 1337.29C2241.62 1338.37 2239.77 1338.89 2237.93 1338.89 2234.75 1338.89 2231.63 1337.34 2229.76 1334.48 2226.8 1329.97 2228.06 1323.92 2232.57 1320.96L2258.67 1303.86 2241.47 1277.56C2238.52 1273.05 2239.78 1267 2244.29 1264.05 2248.8 1261.1 2254.85 1262.36 2257.8 1266.87L2275 1293.16 2316 1266.3 2316 1098.76C2316 1093.37 2311.63 1089 2306.24 1089L2230.14 1089 2261.57 1142.34C2263.16 1145.04 2263.36 1148.34 2262.1 1151.21L2250.96 1176.59C2249.35 1180.25 2245.77 1182.43 2242.01 1182.43 2240.7 1182.43 2239.37 1182.17 2238.1 1181.6 2233.16 1179.44 2230.92 1173.68 2233.08 1168.74L2242.22 1147.94 2207.49 1089 1995.76 1089C1990.37 1089 1986 1093.37 1986 1098.76L1986 1221.87 2070.34 1168.95C2073.24 1167.13 2076.9 1166.97 2079.96 1168.53L2120.99 1189.46 2133.99 1171.5C2135.82 1168.96 2138.76 1167.46 2141.89 1167.46L2175.73 1167.46C2181.12 1167.46 2185.49 1171.83 2185.49 1177.22 2185.49 1182.61 2181.12 1186.98 2175.73 1186.98L2146.88 1186.98 2138.59 1198.43 2176.91 1217.98C2181.71 1220.43 2183.62 1226.31 2181.17 1231.11 2178.72 1235.91 2172.84 1237.81 2168.04 1235.37L2076.02 1188.43 1986 1244.92 1986 1409.24C1986 1414.63 1990.37 1419 1995.76 1419L2102.66 1419 2061.51 1317.2C2059.49 1312.2 2061.9 1306.51 2066.9 1304.49 2071.9 1302.47 2077.59 1304.88 2079.61 1309.88L2088.35 1331.51 2125.21 1305.56C2129.62 1302.46 2135.71 1303.51 2138.81 1307.92 2141.91 1312.33 2140.86 1318.42 2136.45 1321.52L2095.86 1350.1 2123.72 1419 2306.24 1419C2311.63 1419 2316 1414.63 2316 1409.24L2316 1289.64 2243.27 1337.29Z" stroke="#FFC000" stroke-width="0.64453" fill="#FFC000"/></g></g></g><path d="M1839.75 1240.25 1976.52 1240.25 1976.52 1267.75 1839.75 1267.75ZM1853.5 1295.25 1771 1254 1853.5 1212.75Z" fill="#FFC000"/><text fill="#FFFFFF" font-family="Century Gothic,Century Gothic_MSFontService,sans-serif" font-weight="700" font-size="110" transform="matrix(1 0 0 1 974.929 1293)">DS<tspan font-size="110" x="1914.41" y="0">IC</tspan><tspan fill="#000000" font-size="110" x="3056.52" y="0">EC</tspan><tspan font-size="110" x="2502.05" y="4">SA</tspan><tspan font-size="110" x="-566.373" y="0">TV</tspan><tspan fill="#000000" font-size="110" x="1097.44" y="-1">VA</tspan><tspan font-size="110" x="486.045" y="0">VP</tspan></text><path d="M3380 1089 3710 1089 3710 1419 3380 1419Z" stroke="#0000FF" stroke-width="32.0833" stroke-linejoin="round" stroke-miterlimit="10" fill="none" fill-rule="evenodd"/><path d="M3168 1240.25 3195.5 1240.25 3195.5 1267.75 3168 1267.75ZM3223 1240.25 3250.5 1240.25 3250.5 1267.75 3223 1267.75ZM3278 1240.25 3305.5 1240.25 3305.5 1267.75 3278 1267.75ZM3333 1240.25 3360.5 1240.25 3360.5 1267.75 3333 1267.75ZM3168 1254 3195.5 1281.5 3113 1254 3195.5 1226.5Z" fill="#0000FF"/><text fill="#FFFFFF" font-family="Century Gothic,Century Gothic_MSFontService,sans-serif" font-weight="700" font-size="64" transform="matrix(1 0 0 1 507.38 1074)">“threatens”<tspan font-size="64" x="1694.38" y="539">“actually protects”</tspan><tspan font-size="64" x="1929.95" y="27">“policy </tspan><tspan font-size="64" x="1899.59" y="104">protects”</tspan><tspan font-size="64" x="2520.55" y="27">“Internally </tspan><tspan font-size="64" x="2643.15" y="104">fulfills”</tspan><tspan font-size="64" x="3081.05" y="577">“externally fulfills”</tspan><tspan font-size="64" x="1155.86" y="126">“enables”</tspan><tspan font-size="64" x="706.127" y="126">“sum”</tspan></text></g></svg>