<svg width="729" height="90" xmlns="http://www.w3.org/2000/svg" xmlns:xlink="http://www.w3.org/1999/xlink" overflow="hidden"><defs><clipPath id="clip0"><rect x="233" y="508" width="729" height="90"/></clipPath></defs><g clip-path="url(#clip0)" transform="translate(-233 -508)"><path d="M586 564 628.649 564 628.649 572 586 572ZM590 580 566 568 590 556Z" fill="#0000FF"/><path d="M448 564 490.649 564 490.649 572 448 572ZM452 580 428 568 452 556Z" fill="#FFC000"/><path d="M719 564 761.649 564 761.649 572 719 572ZM723 580 699 568 723 556Z" fill="#0000FF"/><path d="M659 545.07 659 512.733C659 510.524 660.791 508.733 663 508.733L932.851 508.733C935.06 508.733 936.851 510.524 936.851 512.733L936.851 525 928.851 525 928.851 512.733 932.851 516.733 663 516.733 667 512.733 667 545.07ZM944.851 521 932.851 545 920.851 521Z" fill="#0000FF"/><path d="M258 545.333 258 512.41C258 510.201 259.791 508.41 262 508.41L527.46 508.41C529.669 508.41 531.46 510.201 531.46 512.41L531.46 524 523.46 524 523.46 512.41 527.46 516.41 262 516.41 266 512.41 266 545.333ZM539.46 520 527.46 544 515.46 520Z" fill="#C00000"/><path d="M237 569 261.5 545 286 569 261.5 593Z" stroke="#C00000" stroke-width="8" stroke-linejoin="round" stroke-miterlimit="10" fill="#C00000" fill-rule="evenodd"/><text fill="#FFFFFF" font-family="Calibri,Calibri_MSFontService,sans-serif" font-weight="700" font-size="19" transform="translate(251.494 574)">TV</text><path d="M639 569C639 555.745 649.745 545 663 545 676.255 545 687 555.745 687 569 687 582.255 676.255 593 663 593 649.745 593 639 582.255 639 569Z" stroke="#0000FF" stroke-width="8" stroke-linejoin="round" stroke-miterlimit="10" fill="#0000FF" fill-rule="evenodd"/><text fill="#FFFFFF" font-family="Calibri,Calibri_MSFontService,sans-serif" font-weight="700" font-size="19" transform="translate(655.996 574)">IC</text><path d="M370 545 418 569 370 593Z" stroke="#FFC000" stroke-width="8" stroke-linejoin="round" stroke-miterlimit="10" fill="#FFC000" fill-rule="evenodd"/><text fill="#FFFFFF" font-family="Calibri,Calibri_MSFontService,sans-serif" font-weight="700" font-size="19" transform="translate(371.759 574)">VP</text><path d="M909 563.334 933 545 957 563.334 947.833 593 918.167 593Z" stroke="#FF9900" stroke-width="8" stroke-linejoin="round" stroke-miterlimit="10" fill="#FF9900" fill-rule="evenodd"/><text fill="#FFFFFF" font-family="Calibri,Calibri_MSFontService,sans-serif" font-weight="700" font-size="19" transform="translate(923.308 576)">EC</text><rect x="776" y="544" width="48" height="49" stroke="#0000FF" stroke-width="8" stroke-linejoin="round" stroke-miterlimit="10" fill="none"/><text fill="#FFFFFF" font-family="Calibri,Calibri_MSFontService,sans-serif" font-weight="700" font-size="19" transform="translate(789.704 574)">SA</text><rect x="503" y="545" width="48" height="48" stroke="#FFC000" stroke-width="8" stroke-linejoin="round" stroke-miterlimit="10" fill="#FFC000"/><text fill="#FFFFFF" font-family="Calibri,Calibri_MSFontService,sans-serif" font-weight="700" font-size="19" transform="translate(515.871 574)">VA</text></g></svg>