<svg xmlns="http://www.w3.org/2000/svg" xmlns:xlink="http://www.w3.org/1999/xlink" version="1.1" style="" xml:space="preserve" width="229" height="46"><rect id="backgroundrect" width="100%" height="100%" x="0" y="0" fill="none" stroke="none" class="" style=""/>
<style type="text/css">
	.st0{fill:#FFFFFF;}
</style>


























<g class="currentLayer" style=""><title>Layer 1</title><path class="st0" d="M22.89999990463257,0 C10.299999904632568,0 -9.536743172944284e-8,10.3 -9.536743172944284e-8,22.9 s10.3,22.9 22.9,22.9 S45.79999990463257,35.5 45.79999990463257,22.9 S35.49999990463257,0 22.89999990463257,0 zM22.89999990463257,43.9 c-11.5,0 -20.9,-9.4 -20.9,-21 S11.399999904632569,2 22.89999990463257,2 s20.9,9.4 20.9,20.9 S34.399999904632566,43.9 22.89999990463257,43.9 z" id="svg_1"/><path class="st0" d="M22.89999990463257,4.8 c-10,0 -18.2,8.1 -18.2,18.2 s8.1,18.2 18.2,18.2 s18.2,-8.1 18.2,-18.2 S32.899999904632566,4.8 22.89999990463257,4.8 zM22.89999990463257,39.2 c-8.9,0 -16.2,-7.3 -16.2,-16.2 S13.899999904632569,6.7 22.89999990463257,6.7 s16.2,7.3 16.2,16.2 S31.79999990463257,39.2 22.89999990463257,39.2 z" id="svg_2"/><circle class="st0" cx="22.899999141693115" cy="22.899999618530273" r="3.9000000953674316" id="svg_3"/><path class="st0" d="M22.89999990463257,9.9 c-7.2,0 -13,5.8 -13,13 s5.8,13 13,13 s13,-5.8 13,-13 S30.09999990463257,9.9 22.89999990463257,9.9 zM33.09999990463257,22 c0.5,0.5 0.5,1.3 0,1.8 c-1.6,1.8 -5.6,5.5 -10.2,5.5 s-8.6,-3.7 -10.2,-5.5 c-0.5,-0.5 -0.5,-1.3 0,-1.8 c1.6,-1.8 5.6,-5.5 10.2,-5.5 S31.499999904632567,20.3 33.09999990463257,22 z" id="svg_4"/><path class="st0" d="M64.49999990463257,22.8 c-0.6000000000000001,-0.4 -1.6,-0.9 -2.8,-1.4 c-1.1,-0.4 -1.8,-0.7000000000000001 -2.3,-1 s-0.8,-0.6000000000000001 -1.1,-1 c-0.2,-0.4 -0.30000000000000004,-0.8 -0.30000000000000004,-1.4 c0,-0.8 0.30000000000000004,-1.4 0.9,-1.8 c0.6000000000000001,-0.4 1.4,-0.6000000000000001 2.4,-0.6000000000000001 c1.3,0 2.6,0.30000000000000004 4.1,0.9 l0.7000000000000001,-1.8 c-1.4,-0.6000000000000001 -3,-1 -4.7,-1 c-1.6,0 -2.9,0.4 -3.9,1.2 c-1,0.8 -1.5,1.8 -1.5,3.2 c0,1.2 0.30000000000000004,2.2 1,3 s1.8,1.5 3.4,2 c1.1,0.4 1.9,0.8 2.5,1.1 c0.5,0.30000000000000004 0.9,0.7000000000000001 1.2,1 c0.2,0.4 0.30000000000000004,0.8 0.30000000000000004,1.4 c0,0.9 -0.30000000000000004,1.5 -1,2 c-0.6000000000000001,0.5 -1.6,0.7000000000000001 -2.9,0.7000000000000001 c-0.7000000000000001,0 -1.5,-0.1 -2.4,-0.30000000000000004 c-0.9,-0.2 -1.6,-0.4 -2.4,-0.7000000000000001 v2 c1.1,0.5 2.7,0.8 4.7,0.8 c1.9,0 3.4,-0.4 4.5,-1.3 c1.1,-0.9 1.6,-2 1.6,-3.5 c0,-0.8 -0.1,-1.5 -0.4,-2 C65.49999990463257,23.8 65.09999990463257,23.3 64.49999990463257,22.8 z" id="svg_5"/><path class="st0" d="M75.49999990463257,17.9 c-0.9,0 -1.6,0.2 -2.3,0.5 c-0.6000000000000001,0.30000000000000004 -1.2,0.8 -1.7000000000000002,1.5 h-0.1 l-0.30000000000000004,-1.7000000000000002 h-1.7000000000000002 v18.4 h2.1 v-5.2 c0,-0.5 0,-1 -0.1,-1.6 v-0.5 h0.1 c0.9,1.2 2.2,1.8 3.9,1.8 c1.7000000000000002,0 3,-0.6000000000000001 3.9,-1.8 c0.9,-1.2 1.4,-2.8 1.4,-4.9 s-0.5,-3.7 -1.4,-4.9 C78.39999990463257,18.5 77.09999990463257,17.9 75.49999990463257,17.9 zM77.59999990463257,28.1 c-0.6000000000000001,0.9 -1.4,1.3 -2.5,1.3 c-1.3,0 -2.2,-0.4 -2.8,-1.2 c-0.6000000000000001,-0.8 -0.9,-2 -0.9,-3.7 v-0.4 c0,-1.5 0.30000000000000004,-2.6 0.9,-3.4 c0.6000000000000001,-0.7000000000000001 1.5,-1.1 2.7,-1.1 c1.1,0 1.9,0.4 2.5,1.2 c0.6000000000000001,0.8 0.9,2 0.9,3.6 C78.49999990463257,26 78.19999990463256,27.2 77.59999990463257,28.1 z" id="svg_6"/><path class="st0" d="M90.09999990463257,18 c-0.9,0 -1.7000000000000002,0.2 -2.4,0.5 c-0.7000000000000001,0.30000000000000004 -1.2,0.8 -1.6,1.4 h-0.1 c0.1,-0.5 0.1,-1.1 0.1,-1.8 v-5.3 h-2.1 v18 h2.1 v-6.6 c0,-1.7000000000000002 0.30000000000000004,-2.8 0.9,-3.6 c0.6000000000000001,-0.7000000000000001 1.5,-1.1 2.8,-1.1 c1,0 1.7000000000000002,0.30000000000000004 2.2,0.8 s0.7000000000000001,1.3 0.7000000000000001,2.3 v8.1 h2.1 v-8.3 c0,-1.6 -0.4,-2.8 -1.2,-3.5 C92.79999990463257,18.3 91.59999990463257,18 90.09999990463257,18 z" id="svg_7"/><path class="st0" d="M103.59999990463257,17.9 c-1.7000000000000002,0 -3.1,0.6000000000000001 -4.1,1.8 c-1,1.2 -1.5,2.8 -1.5,4.9 c0,2 0.5,3.6 1.6,4.8 c1.1,1.2 2.6,1.7000000000000002 4.5,1.7000000000000002 c0.8,0 1.6,-0.1 2.2,-0.2 s1.3,-0.30000000000000004 2,-0.6000000000000001 V28.5 c-0.8,0.30000000000000004 -1.5,0.6000000000000001 -2.1,0.7000000000000001 s-1.3,0.2 -1.9,0.2 c-1.3,0 -2.3,-0.4 -3,-1.1 s-1.1,-1.8 -1.1,-3.3 h8.7 v-1.3 c0,-1.8 -0.5,-3.2 -1.4,-4.2 C106.49999990463257,18.5 105.19999990463256,17.9 103.59999990463257,17.9 zM100.19999990463256,23.3 c0.1,-1.1 0.5,-2 1,-2.7 c0.6000000000000001,-0.6000000000000001 1.4,-1 2.4,-1 s1.7000000000000002,0.30000000000000004 2.3,0.9 c0.5,0.6000000000000001 0.8,1.5 0.8,2.7 h-6.5 V23.3 z" id="svg_8"/><path class="st0" d="M115.89999990463257,18.6 c-0.7000000000000001,0.4 -1.2,1.1 -1.7000000000000002,1.9 h-0.1 l-0.2,-2.3 h-1.7000000000000002 v12.7 h2.1 v-6.8 c0,-0.8 0.2,-1.5 0.5,-2.2 s0.8,-1.2 1.4,-1.5 c0.6000000000000001,-0.4 1.2,-0.6000000000000001 1.9,-0.6000000000000001 c0.4,0 0.9,0.1 1.4,0.2 l0.30000000000000004,-1.9 c-0.4,-0.1 -0.9,-0.1 -1.5,-0.1 C117.29999990463257,17.9 116.49999990463257,18.2 115.89999990463257,18.6 z" id="svg_9"/><rect x="121.90000295639038" y="18.200000762939453" class="st0" width="2.0999999046325684" height="12.699999809265137" id="svg_10"/><path class="st0" d="M122.99999990463257,13.4 c-0.30000000000000004,0 -0.6000000000000001,0.1 -0.9,0.30000000000000004 c-0.2,0.2 -0.4,0.5 -0.4,1 s0.1,0.8 0.4,1 c0.2,0.2 0.5,0.30000000000000004 0.9,0.30000000000000004 c0.30000000000000004,0 0.6000000000000001,-0.1 0.9,-0.30000000000000004 c0.2,-0.2 0.4,-0.6000000000000001 0.4,-1 c0,-0.5 -0.1,-0.8 -0.4,-1 C123.59999990463257,13.5 123.29999990463257,13.4 122.99999990463257,13.4 z" id="svg_11"/><path class="st0" d="M133.29999990463256,19.8 c0.8,0 1.7000000000000002,0.2 2.7,0.6000000000000001 l0.6000000000000001,-1.7000000000000002 c-0.4,-0.2 -0.9,-0.4 -1.5,-0.5 s-1.2,-0.2 -1.8,-0.2 c-1.9,0 -3.4,0.6000000000000001 -4.4,1.7000000000000002 c-1,1.2 -1.5,2.8 -1.5,4.9 s0.5,3.7 1.5,4.8 c1,1.1 2.4,1.7000000000000002 4.3,1.7000000000000002 c1.3,0 2.4,-0.2 3.3,-0.7000000000000001 V28.5 c-1.1,0.5 -2.2,0.7000000000000001 -3.3,0.7000000000000001 c-1.2,0 -2.1,-0.4 -2.7,-1.2 c-0.6000000000000001,-0.8 -0.9,-2 -0.9,-3.5 c0,-1.6 0.30000000000000004,-2.8 0.9,-3.6 C130.99999990463257,20.2 131.99999990463257,19.8 133.29999990463256,19.8 z" id="svg_12"/><path class="st0" d="M156.00930045247077,22.8 c-0.6000000000000006,-0.4 -1.6,-0.9 -2.8,-1.4 c-1.1,-0.4 -1.8,-0.7000000000000006 -2.3,-1 s-0.8,-0.6000000000000006 -1.1,-1 c-0.2,-0.4 -0.3000000000000003,-0.8 -0.3000000000000003,-1.4 c0,-0.8 0.3000000000000003,-1.4 0.9,-1.8 c0.6000000000000006,-0.4 1.4,-0.6000000000000006 2.4,-0.6000000000000006 c1.3,0 2.6,0.3000000000000003 4.1,0.9 l0.7000000000000006,-1.8 c-1.4,-0.6000000000000006 -3,-1 -4.7,-1 c-1.6,0 -2.9,0.4 -3.9,1.2 c-1,0.8 -1.5,1.8 -1.5,3.2 c0,1.2 0.3000000000000003,2.2 1,3 s1.8,1.5 3.4,2 c1.1,0.4 1.9,0.8 2.5,1.1 c0.5,0.3000000000000003 0.9,0.7000000000000006 1.2,1 c0.2,0.4 0.3000000000000003,0.8 0.3000000000000003,1.4 c0,0.9 -0.3000000000000003,1.5 -1,2 c-0.6000000000000006,0.5 -1.6,0.7000000000000006 -2.9,0.7000000000000006 c-0.7000000000000006,0 -1.5,-0.1 -2.4,-0.3000000000000003 c-0.9,-0.2 -1.6,-0.4 -2.4,-0.7000000000000006 v2 c1.1,0.5 2.7,0.8 4.7,0.8 c1.9,0 3.4,-0.4 4.5,-1.3 s1.6,-2 1.6,-3.5 c0,-0.8 -0.1,-1.5 -0.4,-2 C157.1093004524708,23.8 156.7093004524708,23.3 156.00930045247077,22.8 z" id="svg_18"/><path class="st0" d="M167.1093004524708,18 c-0.9,0 -1.7000000000000002,0.2 -2.4,0.5 s-1.2,0.8 -1.6,1.4 h-0.1 c0.1,-0.5 0.1,-1.1 0.1,-1.8 v-5.3 h-2.1 v18 h2.1 v-6.6 c0,-1.7000000000000002 0.3000000000000003,-2.8 0.9,-3.6 c0.6000000000000006,-0.7000000000000006 1.5,-1.1 2.8,-1.1 c1,0 1.7000000000000002,0.3000000000000003 2.2,0.8 s0.7000000000000006,1.3 0.7000000000000006,2.3 v8.1 h2.1 v-8.3 c0,-1.6 -0.4,-2.8 -1.2,-3.5 C169.80930045247078,18.3 168.6093004524708,18 167.1093004524708,18 z" id="svg_19"/><path class="st0" d="M176.7093004524708,13.4 c-0.3000000000000003,0 -0.6000000000000006,0.1 -0.9,0.3000000000000003 c-0.2,0.2 -0.4,0.5 -0.4,1 s0.1,0.8 0.4,1 c0.2,0.2 0.5,0.3000000000000003 0.9,0.3000000000000003 c0.3000000000000003,0 0.6000000000000006,-0.1 0.9,-0.3000000000000003 c0.2,-0.2 0.4,-0.6000000000000006 0.4,-1 c0,-0.5 -0.1,-0.8 -0.4,-1 C177.30930045247078,13.5 177.1093004524708,13.4 176.7093004524708,13.4 z" id="svg_20"/><rect x="175.70929434895515" y="18.200000762939453" class="st0" width="2.0999999046325684" height="12.699999809265137" id="svg_21"/><path class="st0" d="M186.7093004524708,17.9 c-1.7000000000000002,0 -3.1,0.6000000000000006 -4.1,1.8 c-1,1.2 -1.5,2.8 -1.5,4.9 c0,2 0.5,3.6 1.6,4.8 c1.1,1.2 2.6,1.7000000000000002 4.5,1.7000000000000002 c0.8,0 1.6,-0.1 2.2,-0.2 s1.3,-0.3000000000000003 2,-0.6000000000000006 V28.5 c-0.8,0.3000000000000003 -1.5,0.6000000000000006 -2.1,0.7000000000000006 s-1.3,0.2 -1.9,0.2 c-1.3,0 -2.3,-0.4 -3,-1.1 c-0.7000000000000006,-0.7000000000000006 -1.1,-1.8 -1.1,-3.3 h8.7 v-1.3 c0,-1.8 -0.5,-3.2 -1.4,-4.2 C189.6093004524708,18.5 188.30930045247078,17.9 186.7093004524708,17.9 zM183.30930045247078,23.3 c0.1,-1.1 0.5,-2 1,-2.7 c0.6000000000000006,-0.6000000000000006 1.4,-1 2.4,-1 s1.7000000000000002,0.3000000000000003 2.3,0.9 c0.5,0.6000000000000006 0.8,1.5 0.8,2.7 h-6.5 V23.3 z" id="svg_22"/><rect x="195.20929434895515" y="12.899999618530273" class="st0" width="2.0999999046325684" height="18" id="svg_23"/><path class="st0" d="M209.80930045247078,17.9 c0,0.2 0,0.5 0.1,0.9 c0,0.5 0.1,0.8 0.1,0.9 H209.80930045247078 c-0.9,-1.3 -2.2,-1.9 -3.9,-1.9 c-1.7000000000000002,0 -3,0.6000000000000006 -3.9,1.8 c-0.9,1.2 -1.4,2.8 -1.4,4.9 s0.5,3.7 1.4,4.9 c0.9,1.1 2.2,1.7000000000000002 3.9,1.7000000000000002 c1.8,0 3.1,-0.6000000000000006 4,-1.9 h0.1 l0.3000000000000003,1.7000000000000002 h1.7000000000000002 v-18 H209.80930045247078 V17.9 zM209.80930045247078,25 c0,1.6 -0.3000000000000003,2.7 -0.9,3.4 c-0.6000000000000006,0.7000000000000006 -1.5,1 -2.8,1 c-1.1,0 -1.9,-0.4 -2.5,-1.2 c-0.6000000000000006,-0.8 -0.9,-2 -0.9,-3.6 s0.3000000000000003,-2.8 0.9,-3.7 c0.6000000000000006,-0.9 1.4,-1.3 2.5,-1.3 c1.3,0 2.2,0.4 2.8,1.1 c0.6000000000000006,0.8 0.9,2 0.9,3.8 V25 z" id="svg_24"/><polygon class="st0" points="213.91059255599976,9.300000190734863 216.31073904037476,9.300000190734863 216.31073904037476,16.299999237060547 217.31081533432007,16.299999237060547 217.31081533432007,9.300000190734863 219.81098318099976,9.300000190734863 219.81098318099976,8.399999618530273 213.91059255599976,8.399999618530273 " id="svg_25"/><path class="st0" d="M228.00930045247077,8.4 h-1.3 l-1.4,3.8 c-0.4,1 -0.6000000000000006,1.9 -0.8,2.7 l0,0 c-0.2,-0.8 -0.5,-1.7000000000000002 -0.8,-2.7 l-1.3,-3.8 h-1.3 l-0.6000000000000006,7.9 h1 l0.2,-3.4 c0.1,-1.2 0.1,-2.5 0.2,-3.5 l0,0 c0.2,0.9 0.5,2 0.9,3.1 l1.3,3.8 h0.8 l1.4,-3.8 c0.4,-1.1 0.7000000000000006,-2.1 1,-3 l0,0 c0,1 0.1,2.3 0.1,3.4 l0.2,3.5 h1 L228.00930045247077,8.4 z" id="svg_26"/></g></svg>